<svg width="23" height="16" viewBox="0 0 23 16" fill="none" xmlns="http://www.w3.org/2000/svg">
    <path fill-rule="evenodd" clip-rule="evenodd" d="M0.344727 1C0.344727 0.447715 0.792442 0 1.34473 0H21.3447C21.897 0 22.3447 0.447717 22.3447 1C22.3447 1.55229 21.897 2 21.3447 2L1.34473 2C0.792442 2 0.344727 1.55228 0.344727 1ZM0.344727 8C0.344727 7.44772 0.792442 7 1.34473 7L21.3447 7C21.897 7 22.3447 7.44772 22.3447 8C22.3447 8.55229 21.897 9 21.3447 9L1.34473 9C0.792442 9 0.344727 8.55229 0.344727 8ZM1.34473 14C0.792442 14 0.344727 14.4477 0.344727 15C0.344727 15.5523 0.792442 16 1.34473 16H21.3447C21.897 16 22.3447 15.5523 22.3447 15C22.3447 14.4477 21.897 14 21.3447 14H1.34473Z" fill="#000039"/>
</svg>