<svg width="526" height="446" viewBox="0 0 526 446" fill="none" xmlns="http://www.w3.org/2000/svg">
    <path d="M359.922 55.2397C371.922 62.9197 374.706 67.6237 374.706 74.5357C374.706 84.8077 365.49 93.2557 353.586 93.2557C340.53 93.2557 332.082 84.9997 332.082 75.3997C332.082 67.6237 337.074 60.7117 347.154 57.0637C338.034 51.3037 335.154 46.1197 335.154 40.3597C335.154 31.1437 343.218 23.4637 353.778 23.4637C364.53 23.4637 372.594 30.4717 372.594 39.4957C372.594 46.6957 367.314 52.5517 359.922 55.2397ZM341.97 36.6157C341.97 41.6077 344.946 45.9277 352.53 50.6317L358.386 54.2797C358.482 54.2797 358.578 54.3757 358.578 54.3757C362.994 51.5917 365.49 46.5037 365.49 40.4557C365.49 31.3357 360.882 25.3837 353.49 25.3837C346.866 25.3837 341.97 29.7997 341.97 36.6157ZM354.162 91.3357C362.706 91.3357 367.314 84.9997 367.314 77.9917C367.314 70.6957 362.322 66.1837 354.066 61.1917L348.594 57.9277C342.162 61.9597 339.858 67.9117 339.858 74.3437C339.858 83.5597 345.714 91.3357 354.162 91.3357ZM400.532 53.4157C410.9 55.6237 418.196 63.3037 418.196 72.9037C418.196 84.6157 408.116 93.2557 397.46 93.2557C386.9 93.2557 380.276 88.7437 377.3 83.7517C378.836 81.0637 381.236 79.9117 383.636 79.9117C385.556 79.9117 386.804 80.7757 388.436 83.1757C391.892 88.2637 393.332 91.3357 398.708 91.3357C404.372 91.3357 409.844 86.5357 409.844 76.0717C409.844 63.8797 400.052 57.5437 390.164 57.5437V56.4877C397.748 54.5677 406.868 49.3837 406.868 39.6877C406.868 33.0637 402.452 29.4157 395.54 29.4157C387.956 29.4157 383.54 33.6397 380.756 37.9597L379.508 37.3837C382.388 31.0477 388.052 23.5597 398.804 23.5597C409.652 23.5597 415.316 30.2797 415.316 37.1917C415.316 47.3677 406.1 52.1677 400.532 53.4157ZM447.571 93.1597C433.939 93.1597 424.723 78.8557 424.723 58.5037C424.723 38.0557 433.939 23.4637 447.571 23.4637C461.203 23.4637 470.419 37.7677 470.419 58.1197C470.419 78.5677 461.203 93.1597 447.571 93.1597ZM448.243 91.2397C456.307 91.2397 460.819 77.8957 460.819 59.2717C460.819 39.7837 456.499 25.3837 446.899 25.3837C438.835 25.3837 434.323 38.7277 434.323 57.3517C434.323 76.7437 438.739 91.2397 448.243 91.2397Z" fill="#000039"/>
    <path d="M347.912 330.998V330.382L349.144 330.27C351.944 329.99 353.344 329.486 353.344 326.462V300.142C353.344 298.294 352.896 297.622 350.488 297.622H347.912V297.118C352.672 295.718 354.744 293.59 357.824 291.182H358.272V326.462C358.272 329.486 359.784 329.99 362.584 330.27L363.704 330.382V330.998H347.912ZM378.103 308.542C384.151 309.83 388.407 314.31 388.407 319.91C388.407 326.742 382.527 331.782 376.311 331.782C370.151 331.782 366.287 329.15 364.551 326.238C365.447 324.67 366.847 323.998 368.247 323.998C369.367 323.998 370.095 324.502 371.047 325.902C373.063 328.87 373.903 330.662 377.039 330.662C380.343 330.662 383.535 327.862 383.535 321.758C383.535 314.646 377.823 310.95 372.055 310.95V310.334C376.479 309.214 381.799 306.19 381.799 300.534C381.799 296.67 379.223 294.542 375.191 294.542C370.767 294.542 368.191 297.006 366.567 299.526L365.839 299.19C367.519 295.494 370.823 291.126 377.095 291.126C383.423 291.126 386.727 295.046 386.727 299.078C386.727 305.014 381.351 307.814 378.103 308.542ZM405.543 331.726C397.591 331.726 392.215 323.382 392.215 311.51C392.215 299.582 397.591 291.07 405.543 291.07C413.495 291.07 418.871 299.414 418.871 311.286C418.871 323.214 413.495 331.726 405.543 331.726ZM405.935 330.606C410.639 330.606 413.271 322.822 413.271 311.958C413.271 300.59 410.751 292.19 405.151 292.19C400.447 292.19 397.815 299.974 397.815 310.838C397.815 322.15 400.391 330.606 405.935 330.606ZM466.859 292.638C465.011 292.862 463.443 293.478 463.443 295.774V327.022C463.443 329.318 465.011 329.766 466.859 330.102L467.867 330.27V330.998H453.867V330.27L454.875 330.102C456.723 329.766 458.291 329.318 458.291 327.022V296.278L443.619 330.998H442.891L427.827 296.222V325.902C427.827 329.038 429.227 329.934 431.355 330.158L432.307 330.27V330.998H422.003V330.27L422.899 330.158C425.027 329.878 426.427 329.038 426.427 325.902V295.774C426.427 293.478 424.859 292.862 423.011 292.638L422.003 292.526V291.798H431.243L445.131 323.83L458.683 291.798H467.867V292.526L466.859 292.638Z" fill="#000039"/>
    <path d="M59.045 326.829C66.045 331.309 67.669 334.053 67.669 338.085C67.669 344.077 62.293 349.005 55.349 349.005C47.733 349.005 42.805 344.189 42.805 338.589C42.805 334.053 45.717 330.021 51.597 327.893C46.277 324.533 44.597 321.509 44.597 318.149C44.597 312.773 49.301 308.293 55.461 308.293C61.733 308.293 66.437 312.381 66.437 317.645C66.437 321.845 63.357 325.261 59.045 326.829ZM48.573 315.965C48.573 318.877 50.309 321.397 54.733 324.141L58.149 326.269C58.205 326.269 58.261 326.325 58.261 326.325C60.837 324.701 62.293 321.733 62.293 318.205C62.293 312.885 59.605 309.413 55.293 309.413C51.429 309.413 48.573 311.989 48.573 315.965ZM55.685 347.885C60.669 347.885 63.357 344.189 63.357 340.101C63.357 335.845 60.445 333.213 55.629 330.301L52.437 328.397C48.685 330.749 47.341 334.221 47.341 337.973C47.341 343.349 50.757 347.885 55.685 347.885ZM86.9903 326.829C93.9903 331.309 95.6143 334.053 95.6143 338.085C95.6143 344.077 90.2383 349.005 83.2943 349.005C75.6783 349.005 70.7503 344.189 70.7503 338.589C70.7503 334.053 73.6623 330.021 79.5423 327.893C74.2223 324.533 72.5423 321.509 72.5423 318.149C72.5423 312.773 77.2463 308.293 83.4063 308.293C89.6783 308.293 94.3823 312.381 94.3823 317.645C94.3823 321.845 91.3023 325.261 86.9903 326.829ZM76.5183 315.965C76.5183 318.877 78.2543 321.397 82.6783 324.141L86.0943 326.269C86.1503 326.269 86.2063 326.325 86.2063 326.325C88.7823 324.701 90.2383 321.733 90.2383 318.205C90.2383 312.885 87.5503 309.413 83.2383 309.413C79.3743 309.413 76.5183 311.989 76.5183 315.965ZM83.6303 347.885C88.6143 347.885 91.3023 344.189 91.3023 340.101C91.3023 335.845 88.3903 333.213 83.5743 330.301L80.3823 328.397C76.6303 330.749 75.2863 334.221 75.2863 337.973C75.2863 343.349 78.7023 347.885 83.6303 347.885ZM143.272 309.861C141.424 310.085 139.856 310.701 139.856 312.997V344.245C139.856 346.541 141.424 346.989 143.272 347.325L144.28 347.493V348.221H130.28V347.493L131.288 347.325C133.136 346.989 134.704 346.541 134.704 344.245V313.501L120.032 348.221H119.304L104.24 313.445V343.125C104.24 346.261 105.64 347.157 107.768 347.381L108.72 347.493V348.221H98.4156V347.493L99.3116 347.381C101.44 347.101 102.84 346.261 102.84 343.125V312.997C102.84 310.701 101.272 310.085 99.4236 309.861L98.4156 309.749V309.021H107.656L121.544 341.053L135.096 309.021H144.28V309.749L143.272 309.861Z" fill="#000039"/>
    <path d="M333.906 106.704C334.781 106.704 335.528 106.922 336.146 107.36C336.776 107.786 337.197 108.4 337.41 109.2H336.37C336.2 108.709 335.89 108.33 335.442 108.064C335.005 107.786 334.498 107.648 333.922 107.648C333.112 107.648 332.44 107.957 331.906 108.576C331.373 109.194 331.106 109.973 331.106 110.912C331.106 111.829 331.373 112.597 331.906 113.216C332.45 113.834 333.128 114.144 333.938 114.144C334.514 114.144 335.021 114.005 335.458 113.728C335.896 113.45 336.2 113.072 336.37 112.592H337.41C337.186 113.392 336.76 114.01 336.13 114.448C335.512 114.874 334.77 115.088 333.906 115.088C332.797 115.088 331.88 114.693 331.154 113.904C330.44 113.104 330.082 112.106 330.082 110.912C330.082 109.696 330.44 108.693 331.154 107.904C331.88 107.104 332.797 106.704 333.906 106.704ZM341.908 106.704C342.793 106.704 343.471 106.954 343.94 107.456C344.42 107.946 344.66 108.645 344.66 109.552V114.912H343.7L343.668 113.744C343.455 114.128 343.124 114.448 342.676 114.704C342.228 114.96 341.711 115.088 341.124 115.088C340.431 115.088 339.876 114.89 339.46 114.496C339.055 114.101 338.852 113.584 338.852 112.944C338.852 112.325 339.033 111.829 339.396 111.456C339.759 111.072 340.303 110.805 341.028 110.656L343.636 110.112V109.584C343.636 108.933 343.492 108.448 343.204 108.128C342.916 107.808 342.484 107.648 341.908 107.648C341.375 107.648 340.937 107.797 340.596 108.096C340.255 108.384 340.084 108.81 340.084 109.376H339.076C339.087 108.608 339.348 107.973 339.86 107.472C340.383 106.96 341.065 106.704 341.908 106.704ZM343.636 111.024L341.22 111.552C340.783 111.658 340.447 111.813 340.212 112.016C339.988 112.218 339.876 112.522 339.876 112.928C339.876 113.312 339.993 113.61 340.228 113.824C340.473 114.037 340.815 114.144 341.252 114.144C341.636 114.144 341.983 114.074 342.292 113.936C342.601 113.786 342.873 113.568 343.108 113.28C343.289 113.045 343.423 112.8 343.508 112.544C343.593 112.277 343.636 111.994 343.636 111.696V111.024ZM349.259 106.704C350.016 106.704 350.624 106.922 351.083 107.36C351.552 107.786 351.792 108.373 351.803 109.12H350.763C350.752 108.629 350.619 108.261 350.363 108.016C350.107 107.77 349.728 107.648 349.227 107.648C348.747 107.648 348.379 107.765 348.123 108C347.867 108.224 347.739 108.528 347.739 108.912C347.739 109.306 347.856 109.6 348.091 109.792C348.325 109.973 348.784 110.154 349.467 110.336C350.395 110.592 351.061 110.901 351.467 111.264C351.872 111.616 352.075 112.101 352.075 112.72C352.075 113.445 351.819 114.021 351.307 114.448C350.805 114.874 350.155 115.088 349.355 115.088C348.469 115.088 347.771 114.858 347.259 114.4C346.757 113.93 346.501 113.317 346.491 112.56H347.531C347.541 113.061 347.707 113.45 348.027 113.728C348.347 114.005 348.8 114.144 349.387 114.144C349.931 114.144 350.341 114.016 350.619 113.76C350.907 113.504 351.051 113.173 351.051 112.768C351.051 112.373 350.912 112.064 350.635 111.84C350.357 111.616 349.856 111.413 349.131 111.232C348.299 111.018 347.685 110.746 347.291 110.416C346.907 110.074 346.715 109.589 346.715 108.96C346.715 108.32 346.939 107.786 347.387 107.36C347.845 106.922 348.469 106.704 349.259 106.704ZM357.17 106.704C358.269 106.704 359.149 107.056 359.81 107.76C360.482 108.453 360.818 109.44 360.818 110.72V111.28H354.434C354.477 112.154 354.754 112.853 355.266 113.376C355.789 113.888 356.44 114.144 357.218 114.144C357.848 114.144 358.365 114.021 358.77 113.776C359.186 113.52 359.49 113.141 359.682 112.64H360.722C360.477 113.418 360.05 114.021 359.442 114.448C358.845 114.874 358.098 115.088 357.202 115.088C356.093 115.088 355.181 114.704 354.466 113.936C353.762 113.168 353.41 112.16 353.41 110.912C353.41 109.685 353.752 108.677 354.434 107.888C355.128 107.098 356.04 106.704 357.17 106.704ZM357.17 107.648C356.402 107.648 355.768 107.904 355.266 108.416C354.776 108.917 354.498 109.568 354.434 110.368H359.794C359.794 109.525 359.554 108.864 359.074 108.384C358.605 107.893 357.97 107.648 357.17 107.648ZM365.071 106.704C365.829 106.704 366.437 106.922 366.895 107.36C367.365 107.786 367.605 108.373 367.615 109.12H366.575C366.565 108.629 366.431 108.261 366.175 108.016C365.919 107.77 365.541 107.648 365.039 107.648C364.559 107.648 364.191 107.765 363.935 108C363.679 108.224 363.551 108.528 363.551 108.912C363.551 109.306 363.669 109.6 363.903 109.792C364.138 109.973 364.597 110.154 365.279 110.336C366.207 110.592 366.874 110.901 367.279 111.264C367.685 111.616 367.887 112.101 367.887 112.72C367.887 113.445 367.631 114.021 367.119 114.448C366.618 114.874 365.967 115.088 365.167 115.088C364.282 115.088 363.583 114.858 363.071 114.4C362.57 113.93 362.314 113.317 362.303 112.56H363.343C363.354 113.061 363.519 113.45 363.839 113.728C364.159 114.005 364.613 114.144 365.199 114.144C365.743 114.144 366.154 114.016 366.431 113.76C366.719 113.504 366.863 113.173 366.863 112.768C366.863 112.373 366.725 112.064 366.447 111.84C366.17 111.616 365.669 111.413 364.943 111.232C364.111 111.018 363.498 110.746 363.103 110.416C362.719 110.074 362.527 109.589 362.527 108.96C362.527 108.32 362.751 107.786 363.199 107.36C363.658 106.922 364.282 106.704 365.071 106.704ZM376.822 106.8V107.792C376.491 107.792 376.187 107.845 375.91 107.952C375.643 108.058 375.403 108.224 375.19 108.448C374.934 108.693 374.742 108.992 374.614 109.344C374.486 109.696 374.422 110.101 374.422 110.56V114.912H373.414V106.88H374.358L374.39 108.336C374.55 107.909 374.833 107.546 375.238 107.248C375.654 106.949 376.182 106.8 376.822 106.8ZM381.545 106.704C382.644 106.704 383.524 107.056 384.185 107.76C384.857 108.453 385.193 109.44 385.193 110.72V111.28H378.809C378.852 112.154 379.129 112.853 379.641 113.376C380.164 113.888 380.815 114.144 381.593 114.144C382.223 114.144 382.74 114.021 383.145 113.776C383.561 113.52 383.865 113.141 384.057 112.64H385.097C384.852 113.418 384.425 114.021 383.817 114.448C383.22 114.874 382.473 115.088 381.577 115.088C380.468 115.088 379.556 114.704 378.841 113.936C378.137 113.168 377.785 112.16 377.785 110.912C377.785 109.685 378.127 108.677 378.809 107.888C379.503 107.098 380.415 106.704 381.545 106.704ZM381.545 107.648C380.777 107.648 380.143 107.904 379.641 108.416C379.151 108.917 378.873 109.568 378.809 110.368H384.169C384.169 109.525 383.929 108.864 383.449 108.384C382.98 107.893 382.345 107.648 381.545 107.648ZM389.446 106.704C390.204 106.704 390.812 106.922 391.27 107.36C391.74 107.786 391.98 108.373 391.99 109.12H390.95C390.94 108.629 390.806 108.261 390.55 108.016C390.294 107.77 389.916 107.648 389.414 107.648C388.934 107.648 388.566 107.765 388.31 108C388.054 108.224 387.926 108.528 387.926 108.912C387.926 109.306 388.044 109.6 388.278 109.792C388.513 109.973 388.972 110.154 389.654 110.336C390.582 110.592 391.249 110.901 391.654 111.264C392.06 111.616 392.262 112.101 392.262 112.72C392.262 113.445 392.006 114.021 391.494 114.448C390.993 114.874 390.342 115.088 389.542 115.088C388.657 115.088 387.958 114.858 387.446 114.4C386.945 113.93 386.689 113.317 386.678 112.56H387.718C387.729 113.061 387.894 113.45 388.214 113.728C388.534 114.005 388.988 114.144 389.574 114.144C390.118 114.144 390.529 114.016 390.806 113.76C391.094 113.504 391.238 113.173 391.238 112.768C391.238 112.373 391.1 112.064 390.822 111.84C390.545 111.616 390.044 111.413 389.318 111.232C388.486 111.018 387.873 110.746 387.478 110.416C387.094 110.074 386.902 109.589 386.902 108.96C386.902 108.32 387.126 107.786 387.574 107.36C388.033 106.922 388.657 106.704 389.446 106.704ZM400.478 107.888C401.214 108.677 401.582 109.68 401.582 110.896C401.582 112.112 401.214 113.114 400.478 113.904C399.742 114.693 398.782 115.088 397.598 115.088C396.414 115.088 395.454 114.693 394.718 113.904C393.971 113.114 393.598 112.112 393.598 110.896C393.598 109.68 393.971 108.677 394.718 107.888C395.454 107.098 396.414 106.704 397.598 106.704C398.782 106.704 399.742 107.098 400.478 107.888ZM397.614 107.648C396.718 107.648 395.993 107.957 395.438 108.576C394.894 109.184 394.622 109.957 394.622 110.896C394.622 111.834 394.894 112.613 395.438 113.232C395.993 113.84 396.718 114.144 397.614 114.144C398.499 114.144 399.209 113.84 399.742 113.232C400.286 112.613 400.558 111.834 400.558 110.896C400.558 109.957 400.286 109.184 399.742 108.576C399.209 107.957 398.499 107.648 397.614 107.648ZM404.53 103.232V114.912H403.522V103.232H404.53ZM413.481 106.88L410.313 114.912H409.337L406.169 106.88H407.241L409.657 113.104L409.817 113.664L409.993 113.104L412.393 106.88H413.481ZM418.123 106.704C419.222 106.704 420.102 107.056 420.763 107.76C421.435 108.453 421.771 109.44 421.771 110.72V111.28H415.387C415.43 112.154 415.707 112.853 416.219 113.376C416.742 113.888 417.393 114.144 418.171 114.144C418.801 114.144 419.318 114.021 419.723 113.776C420.139 113.52 420.443 113.141 420.635 112.64H421.675C421.43 113.418 421.003 114.021 420.395 114.448C419.798 114.874 419.051 115.088 418.155 115.088C417.046 115.088 416.134 114.704 415.419 113.936C414.715 113.168 414.363 112.16 414.363 110.912C414.363 109.685 414.705 108.677 415.387 107.888C416.081 107.098 416.993 106.704 418.123 106.704ZM418.123 107.648C417.355 107.648 416.721 107.904 416.219 108.416C415.729 108.917 415.451 109.568 415.387 110.368H420.747C420.747 109.525 420.507 108.864 420.027 108.384C419.558 107.893 418.923 107.648 418.123 107.648ZM430.744 103.232V114.912H429.816L429.784 113.552C429.55 113.957 429.182 114.314 428.68 114.624C428.179 114.933 427.587 115.088 426.904 115.088C425.763 115.088 424.851 114.693 424.168 113.904C423.496 113.114 423.16 112.112 423.16 110.896C423.16 109.68 423.502 108.677 424.184 107.888C424.867 107.098 425.779 106.704 426.92 106.704C427.592 106.704 428.179 106.853 428.68 107.152C429.182 107.45 429.539 107.808 429.752 108.224V103.232H430.744ZM427.016 107.664C426.174 107.664 425.491 107.968 424.968 108.576C424.446 109.184 424.184 109.957 424.184 110.896C424.184 111.845 424.44 112.624 424.952 113.232C425.464 113.84 426.147 114.144 427 114.144C427.758 114.144 428.403 113.872 428.936 113.328C429.48 112.773 429.752 112.037 429.752 111.12V110.784C429.752 109.834 429.48 109.077 428.936 108.512C428.403 107.946 427.763 107.664 427.016 107.664ZM332.738 124.184L333.474 124.728C332.717 125.677 332.168 126.616 331.826 127.544C331.485 128.472 331.314 129.549 331.314 130.776C331.314 132.002 331.485 133.08 331.826 134.008C332.168 134.936 332.717 135.874 333.474 136.824L332.738 137.368C331.938 136.354 331.336 135.325 330.93 134.28C330.525 133.234 330.322 132.066 330.322 130.776C330.322 129.485 330.525 128.317 330.93 127.272C331.336 126.226 331.938 125.197 332.738 124.184ZM337.502 127.704C338.387 127.704 339.064 127.954 339.534 128.456C340.014 128.946 340.254 129.645 340.254 130.552V135.912H339.294L339.262 134.744C339.048 135.128 338.718 135.448 338.27 135.704C337.822 135.96 337.304 136.088 336.718 136.088C336.024 136.088 335.47 135.89 335.054 135.496C334.648 135.101 334.446 134.584 334.446 133.944C334.446 133.325 334.627 132.829 334.99 132.456C335.352 132.072 335.896 131.805 336.622 131.656L339.23 131.112V130.584C339.23 129.933 339.086 129.448 338.798 129.128C338.51 128.808 338.078 128.648 337.502 128.648C336.968 128.648 336.531 128.797 336.19 129.096C335.848 129.384 335.678 129.81 335.678 130.376H334.67C334.68 129.608 334.942 128.973 335.454 128.472C335.976 127.96 336.659 127.704 337.502 127.704ZM339.23 132.024L336.814 132.552C336.376 132.658 336.04 132.813 335.806 133.016C335.582 133.218 335.47 133.522 335.47 133.928C335.47 134.312 335.587 134.61 335.822 134.824C336.067 135.037 336.408 135.144 336.846 135.144C337.23 135.144 337.576 135.074 337.886 134.936C338.195 134.786 338.467 134.568 338.702 134.28C338.883 134.045 339.016 133.8 339.102 133.544C339.187 133.277 339.23 132.994 339.23 132.696V132.024ZM345.956 127.704C346.799 127.704 347.444 127.981 347.892 128.536C348.351 129.09 348.58 129.821 348.58 130.728V135.912H347.572V130.824C347.572 130.13 347.412 129.602 347.092 129.24C346.783 128.866 346.351 128.68 345.796 128.68C345.178 128.68 344.671 128.93 344.276 129.432C343.882 129.933 343.684 130.605 343.684 131.448V135.912H342.676V127.88H343.604L343.652 129.096C343.812 128.722 344.1 128.397 344.516 128.12C344.932 127.842 345.412 127.704 345.956 127.704ZM357.916 124.232V135.912H356.988L356.956 134.552C356.722 134.957 356.354 135.314 355.852 135.624C355.351 135.933 354.759 136.088 354.076 136.088C352.935 136.088 352.023 135.693 351.34 134.904C350.668 134.114 350.332 133.112 350.332 131.896C350.332 130.68 350.674 129.677 351.356 128.888C352.039 128.098 352.951 127.704 354.092 127.704C354.764 127.704 355.351 127.853 355.852 128.152C356.354 128.45 356.711 128.808 356.924 129.224V124.232H357.916ZM354.188 128.664C353.346 128.664 352.663 128.968 352.14 129.576C351.618 130.184 351.356 130.957 351.356 131.896C351.356 132.845 351.612 133.624 352.124 134.232C352.636 134.84 353.319 135.144 354.172 135.144C354.93 135.144 355.575 134.872 356.108 134.328C356.652 133.773 356.924 133.037 356.924 132.12V131.784C356.924 130.834 356.652 130.077 356.108 129.512C355.575 128.946 354.935 128.664 354.188 128.664ZM366.984 127.704C367.859 127.704 368.606 127.922 369.224 128.36C369.854 128.786 370.275 129.4 370.488 130.2H369.448C369.278 129.709 368.968 129.33 368.52 129.064C368.083 128.786 367.576 128.648 367 128.648C366.19 128.648 365.518 128.957 364.984 129.576C364.451 130.194 364.184 130.973 364.184 131.912C364.184 132.829 364.451 133.597 364.984 134.216C365.528 134.834 366.206 135.144 367.016 135.144C367.592 135.144 368.099 135.005 368.536 134.728C368.974 134.45 369.278 134.072 369.448 133.592H370.488C370.264 134.392 369.838 135.01 369.208 135.448C368.59 135.874 367.848 136.088 366.984 136.088C365.875 136.088 364.958 135.693 364.232 134.904C363.518 134.104 363.16 133.106 363.16 131.912C363.16 130.696 363.518 129.693 364.232 128.904C364.958 128.104 365.875 127.704 366.984 127.704ZM378.634 128.888C379.37 129.677 379.738 130.68 379.738 131.896C379.738 133.112 379.37 134.114 378.634 134.904C377.898 135.693 376.938 136.088 375.754 136.088C374.57 136.088 373.61 135.693 372.874 134.904C372.127 134.114 371.754 133.112 371.754 131.896C371.754 130.68 372.127 129.677 372.874 128.888C373.61 128.098 374.57 127.704 375.754 127.704C376.938 127.704 377.898 128.098 378.634 128.888ZM375.77 128.648C374.874 128.648 374.149 128.957 373.594 129.576C373.05 130.184 372.778 130.957 372.778 131.896C372.778 132.834 373.05 133.613 373.594 134.232C374.149 134.84 374.874 135.144 375.77 135.144C376.655 135.144 377.365 134.84 377.898 134.232C378.442 133.613 378.714 132.834 378.714 131.896C378.714 130.957 378.442 130.184 377.898 129.576C377.365 128.957 376.655 128.648 375.77 128.648ZM387.326 127.88V135.912H386.382L386.35 134.712C386.19 135.096 385.907 135.421 385.502 135.688C385.097 135.954 384.622 136.088 384.078 136.088C383.235 136.088 382.59 135.816 382.142 135.272C381.705 134.717 381.486 133.981 381.486 133.064V127.88H382.494V132.968C382.494 133.672 382.649 134.21 382.958 134.584C383.267 134.946 383.699 135.128 384.254 135.128C384.862 135.128 385.358 134.882 385.742 134.392C386.126 133.901 386.318 133.245 386.318 132.424V127.88H387.326ZM393.16 127.704C394.002 127.704 394.648 127.981 395.096 128.536C395.554 129.09 395.784 129.821 395.784 130.728V135.912H394.776V130.824C394.776 130.13 394.616 129.602 394.296 129.24C393.986 128.866 393.554 128.68 393 128.68C392.381 128.68 391.874 128.93 391.48 129.432C391.085 129.933 390.888 130.605 390.888 131.448V135.912H389.88V127.88H390.808L390.856 129.096C391.016 128.722 391.304 128.397 391.72 128.12C392.136 127.842 392.616 127.704 393.16 127.704ZM399.663 125.832L399.647 127.88H401.823V128.824H399.631L399.599 133.704C399.599 134.194 399.679 134.552 399.839 134.776C400.01 134.989 400.33 135.096 400.799 135.096C400.97 135.096 401.141 135.085 401.311 135.064C401.482 135.032 401.653 134.989 401.823 134.936V135.848C401.685 135.912 401.519 135.954 401.327 135.976C401.146 136.008 400.933 136.024 400.687 136.024C399.983 136.024 399.455 135.853 399.103 135.512C398.762 135.16 398.597 134.6 398.607 133.832L398.639 128.824H397.039V127.88H398.639L398.655 125.832H399.663ZM404.655 127.88V135.912H403.647V127.88H404.655ZM404.159 124.552C404.372 124.552 404.553 124.632 404.703 124.792C404.863 124.941 404.943 125.122 404.943 125.336C404.943 125.549 404.863 125.73 404.703 125.88C404.553 126.029 404.372 126.104 404.159 126.104C403.935 126.104 403.748 126.029 403.599 125.88C403.449 125.73 403.375 125.549 403.375 125.336C403.375 125.122 403.449 124.941 403.599 124.792C403.748 124.632 403.935 124.552 404.159 124.552ZM410.55 127.704C411.393 127.704 412.038 127.981 412.486 128.536C412.945 129.09 413.174 129.821 413.174 130.728V135.912H412.166V130.824C412.166 130.13 412.006 129.602 411.686 129.24C411.377 128.866 410.945 128.68 410.39 128.68C409.772 128.68 409.265 128.93 408.87 129.432C408.476 129.933 408.278 130.605 408.278 131.448V135.912H407.27V127.88H408.198L408.246 129.096C408.406 128.722 408.694 128.397 409.11 128.12C409.526 127.842 410.006 127.704 410.55 127.704ZM422.286 127.88V128.792H420.734C420.926 129.037 421.065 129.309 421.15 129.608C421.246 129.896 421.294 130.216 421.294 130.568C421.294 131.378 421.022 132.056 420.478 132.6C419.934 133.144 419.209 133.416 418.302 133.416C417.939 133.416 417.598 133.373 417.278 133.288C416.969 133.192 416.681 133.053 416.414 132.872C416.265 133 416.147 133.144 416.062 133.304C415.987 133.464 415.95 133.64 415.95 133.832C415.95 134.141 416.057 134.376 416.27 134.536C416.494 134.696 416.782 134.776 417.134 134.776H419.358C420.19 134.776 420.809 134.973 421.214 135.368C421.63 135.752 421.838 136.274 421.838 136.936C421.838 137.746 421.55 138.381 420.974 138.84C420.409 139.298 419.619 139.528 418.606 139.528C417.497 139.528 416.643 139.314 416.046 138.888C415.459 138.472 415.166 137.869 415.166 137.08C415.166 136.706 415.241 136.386 415.39 136.12C415.55 135.853 415.779 135.645 416.078 135.496C415.758 135.368 415.491 135.165 415.278 134.888C415.065 134.6 414.958 134.258 414.958 133.864C414.958 133.533 415.027 133.234 415.166 132.968C415.315 132.701 415.529 132.466 415.806 132.264C415.635 132.029 415.502 131.773 415.406 131.496C415.321 131.208 415.278 130.898 415.278 130.568C415.278 129.725 415.55 129.037 416.094 128.504C416.638 127.97 417.374 127.704 418.302 127.704C418.505 127.704 418.702 127.72 418.894 127.752C419.086 127.773 419.267 127.816 419.438 127.88H422.286ZM416.286 130.568C416.286 131.133 416.467 131.597 416.83 131.96C417.193 132.322 417.678 132.504 418.286 132.504C418.905 132.504 419.395 132.322 419.758 131.96C420.121 131.597 420.302 131.133 420.302 130.568C420.302 129.981 420.121 129.512 419.758 129.16C419.395 128.797 418.905 128.616 418.286 128.616C417.667 128.616 417.177 128.797 416.814 129.16C416.462 129.512 416.286 129.981 416.286 130.568ZM419.23 135.688H417.518C417.145 135.698 416.825 135.821 416.558 136.056C416.302 136.29 416.174 136.621 416.174 137.048C416.174 137.57 416.377 137.96 416.782 138.216C417.187 138.482 417.795 138.616 418.606 138.616C419.353 138.616 419.907 138.477 420.27 138.2C420.643 137.922 420.83 137.506 420.83 136.952C420.83 136.546 420.686 136.232 420.398 136.008C420.121 135.794 419.731 135.688 419.23 135.688ZM423.106 124.184C423.906 125.197 424.509 126.226 424.914 127.272C425.319 128.317 425.522 129.485 425.522 130.776C425.522 132.066 425.319 133.234 424.914 134.28C424.509 135.325 423.906 136.354 423.106 137.368L422.37 136.824C423.127 135.874 423.677 134.936 424.018 134.008C424.359 133.08 424.53 132.002 424.53 130.776C424.53 129.549 424.359 128.472 424.018 127.544C423.677 126.616 423.127 125.677 422.37 124.728L423.106 124.184Z" fill="#000039"/>
    <path d="M327.999 351.504C328.842 351.504 329.487 351.781 329.935 352.336C330.383 352.88 330.607 353.611 330.607 354.528V359.712H329.599V354.624C329.599 353.931 329.445 353.403 329.135 353.04C328.826 352.667 328.394 352.48 327.839 352.48C327.242 352.48 326.746 352.72 326.351 353.2C325.957 353.669 325.754 354.309 325.743 355.12V359.712H324.751V354.624C324.751 353.931 324.591 353.403 324.271 353.04C323.962 352.667 323.53 352.48 322.975 352.48C322.367 352.48 321.866 352.731 321.471 353.232C321.087 353.723 320.895 354.395 320.895 355.248V359.712H319.887V351.68H320.815L320.863 352.896C321.023 352.523 321.306 352.197 321.711 351.92C322.127 351.643 322.602 351.504 323.135 351.504C323.733 351.504 324.229 351.643 324.623 351.92C325.018 352.187 325.317 352.592 325.519 353.136C325.733 352.688 326.053 352.304 326.479 351.984C326.906 351.664 327.413 351.504 327.999 351.504ZM335.588 351.504C336.473 351.504 337.15 351.755 337.62 352.256C338.1 352.747 338.34 353.445 338.34 354.352V359.712H337.38L337.348 358.544C337.134 358.928 336.804 359.248 336.356 359.504C335.908 359.76 335.39 359.888 334.804 359.888C334.11 359.888 333.556 359.691 333.14 359.296C332.734 358.901 332.532 358.384 332.532 357.744C332.532 357.125 332.713 356.629 333.076 356.256C333.438 355.872 333.982 355.605 334.708 355.456L337.316 354.912V354.384C337.316 353.733 337.172 353.248 336.884 352.928C336.596 352.608 336.164 352.448 335.588 352.448C335.054 352.448 334.617 352.597 334.276 352.896C333.934 353.184 333.764 353.611 333.764 354.176H332.756C332.766 353.408 333.028 352.773 333.54 352.272C334.062 351.76 334.745 351.504 335.588 351.504ZM337.316 355.824L334.9 356.352C334.462 356.459 334.126 356.613 333.892 356.816C333.668 357.019 333.556 357.323 333.556 357.728C333.556 358.112 333.673 358.411 333.908 358.624C334.153 358.837 334.494 358.944 334.932 358.944C335.316 358.944 335.662 358.875 335.972 358.736C336.281 358.587 336.553 358.368 336.788 358.08C336.969 357.845 337.102 357.6 337.188 357.344C337.273 357.077 337.316 356.795 337.316 356.496V355.824ZM344.298 351.6V352.592C343.968 352.592 343.664 352.645 343.386 352.752C343.12 352.859 342.88 353.024 342.666 353.248C342.41 353.493 342.218 353.792 342.09 354.144C341.962 354.496 341.898 354.901 341.898 355.36V359.712H340.89V351.68H341.834L341.866 353.136C342.026 352.709 342.309 352.347 342.714 352.048C343.13 351.749 343.658 351.6 344.298 351.6ZM347.086 348.032V355.712L350.446 351.68H351.71L348.974 354.976L352.126 359.712H350.958L348.27 355.76L347.086 357.184V359.712H346.078V348.032H347.086ZM356.663 351.504C357.761 351.504 358.641 351.856 359.303 352.56C359.975 353.253 360.311 354.24 360.311 355.52V356.08H353.927C353.969 356.955 354.247 357.653 354.759 358.176C355.281 358.688 355.932 358.944 356.711 358.944C357.34 358.944 357.857 358.821 358.263 358.576C358.679 358.32 358.983 357.941 359.175 357.44H360.215C359.969 358.219 359.543 358.821 358.935 359.248C358.337 359.675 357.591 359.888 356.695 359.888C355.585 359.888 354.673 359.504 353.959 358.736C353.255 357.968 352.903 356.96 352.903 355.712C352.903 354.485 353.244 353.477 353.927 352.688C354.62 351.899 355.532 351.504 356.663 351.504ZM356.663 352.448C355.895 352.448 355.26 352.704 354.759 353.216C354.268 353.717 353.991 354.368 353.927 355.168H359.287C359.287 354.325 359.047 353.664 358.567 353.184C358.097 352.693 357.463 352.448 356.663 352.448ZM363.827 349.632L363.811 351.68H365.987V352.624H363.795L363.763 357.504C363.763 357.995 363.843 358.352 364.003 358.576C364.174 358.789 364.494 358.896 364.963 358.896C365.134 358.896 365.305 358.885 365.475 358.864C365.646 358.832 365.817 358.789 365.987 358.736V359.648C365.849 359.712 365.683 359.755 365.491 359.776C365.31 359.808 365.097 359.824 364.851 359.824C364.147 359.824 363.619 359.653 363.267 359.312C362.926 358.96 362.761 358.4 362.771 357.632L362.803 352.624H361.203V351.68H362.803L362.819 349.632H363.827ZM377.458 351.68L374.29 359.712H373.314L370.146 351.68H371.218L373.634 357.904L373.794 358.464L373.97 357.904L376.37 351.68H377.458ZM381.572 351.504C382.457 351.504 383.135 351.755 383.604 352.256C384.084 352.747 384.324 353.445 384.324 354.352V359.712H383.364L383.332 358.544C383.119 358.928 382.788 359.248 382.34 359.504C381.892 359.76 381.375 359.888 380.788 359.888C380.095 359.888 379.54 359.691 379.124 359.296C378.719 358.901 378.516 358.384 378.516 357.744C378.516 357.125 378.697 356.629 379.06 356.256C379.423 355.872 379.967 355.605 380.692 355.456L383.3 354.912V354.384C383.3 353.733 383.156 353.248 382.868 352.928C382.58 352.608 382.148 352.448 381.572 352.448C381.039 352.448 380.601 352.597 380.26 352.896C379.919 353.184 379.748 353.611 379.748 354.176H378.74C378.751 353.408 379.012 352.773 379.524 352.272C380.047 351.76 380.729 351.504 381.572 351.504ZM383.3 355.824L380.884 356.352C380.447 356.459 380.111 356.613 379.876 356.816C379.652 357.019 379.54 357.323 379.54 357.728C379.54 358.112 379.657 358.411 379.892 358.624C380.137 358.837 380.479 358.944 380.916 358.944C381.3 358.944 381.647 358.875 381.956 358.736C382.265 358.587 382.537 358.368 382.772 358.08C382.953 357.845 383.087 357.6 383.172 357.344C383.257 357.077 383.3 356.795 383.3 356.496V355.824ZM387.819 348.032V359.712H386.811V348.032H387.819ZM396.146 351.68V359.712H395.202L395.17 358.512C395.01 358.896 394.728 359.221 394.322 359.488C393.917 359.755 393.442 359.888 392.898 359.888C392.056 359.888 391.41 359.616 390.962 359.072C390.525 358.517 390.306 357.781 390.306 356.864V351.68H391.314V356.768C391.314 357.472 391.469 358.011 391.778 358.384C392.088 358.747 392.52 358.928 393.074 358.928C393.682 358.928 394.178 358.683 394.562 358.192C394.946 357.701 395.138 357.045 395.138 356.224V351.68H396.146ZM401.772 351.504C402.871 351.504 403.751 351.856 404.412 352.56C405.084 353.253 405.42 354.24 405.42 355.52V356.08H399.036C399.079 356.955 399.356 357.653 399.868 358.176C400.391 358.688 401.041 358.944 401.82 358.944C402.449 358.944 402.967 358.821 403.372 358.576C403.788 358.32 404.092 357.941 404.284 357.44H405.324C405.079 358.219 404.652 358.821 404.044 359.248C403.447 359.675 402.7 359.888 401.804 359.888C400.695 359.888 399.783 359.504 399.068 358.736C398.364 357.968 398.012 356.96 398.012 355.712C398.012 354.485 398.353 353.477 399.036 352.688C399.729 351.899 400.641 351.504 401.772 351.504ZM401.772 352.448C401.004 352.448 400.369 352.704 399.868 353.216C399.377 353.717 399.1 354.368 399.036 355.168H404.396C404.396 354.325 404.156 353.664 403.676 353.184C403.207 352.693 402.572 352.448 401.772 352.448ZM417.064 352.688C417.8 353.477 418.168 354.48 418.168 355.696C418.168 356.912 417.8 357.915 417.064 358.704C416.328 359.493 415.368 359.888 414.184 359.888C413 359.888 412.04 359.493 411.304 358.704C410.557 357.915 410.184 356.912 410.184 355.696C410.184 354.48 410.557 353.477 411.304 352.688C412.04 351.899 413 351.504 414.184 351.504C415.368 351.504 416.328 351.899 417.064 352.688ZM414.2 352.448C413.304 352.448 412.578 352.757 412.024 353.376C411.48 353.984 411.208 354.757 411.208 355.696C411.208 356.635 411.48 357.413 412.024 358.032C412.578 358.64 413.304 358.944 414.2 358.944C415.085 358.944 415.794 358.64 416.328 358.032C416.872 357.413 417.144 356.635 417.144 355.696C417.144 354.757 416.872 353.984 416.328 353.376C415.794 352.757 415.085 352.448 414.2 352.448ZM422.668 347.92C422.892 347.92 423.094 347.936 423.276 347.968C423.457 348 423.617 348.053 423.756 348.128V349.056C423.606 348.981 423.441 348.928 423.26 348.896C423.089 348.864 422.908 348.848 422.716 348.848C422.321 348.848 422.022 348.965 421.82 349.2C421.628 349.435 421.532 349.787 421.532 350.256V351.68H423.612V352.608H421.532V359.712H420.524V352.608H418.972V351.68H420.524V350.24C420.524 349.515 420.71 348.949 421.084 348.544C421.468 348.128 421.996 347.92 422.668 347.92ZM432.048 351.6V352.592C431.718 352.592 431.414 352.645 431.136 352.752C430.87 352.859 430.63 353.024 430.416 353.248C430.16 353.493 429.968 353.792 429.84 354.144C429.712 354.496 429.648 354.901 429.648 355.36V359.712H428.64V351.68H429.584L429.616 353.136C429.776 352.709 430.059 352.347 430.464 352.048C430.88 351.749 431.408 351.6 432.048 351.6ZM436.772 351.504C437.871 351.504 438.751 351.856 439.412 352.56C440.084 353.253 440.42 354.24 440.42 355.52V356.08H434.036C434.079 356.955 434.356 357.653 434.868 358.176C435.391 358.688 436.041 358.944 436.82 358.944C437.449 358.944 437.967 358.821 438.372 358.576C438.788 358.32 439.092 357.941 439.284 357.44H440.324C440.079 358.219 439.652 358.821 439.044 359.248C438.447 359.675 437.7 359.888 436.804 359.888C435.695 359.888 434.783 359.504 434.068 358.736C433.364 357.968 433.012 356.96 433.012 355.712C433.012 354.485 433.353 353.477 434.036 352.688C434.729 351.899 435.641 351.504 436.772 351.504ZM436.772 352.448C436.004 352.448 435.369 352.704 434.868 353.216C434.377 353.717 434.1 354.368 434.036 355.168H439.396C439.396 354.325 439.156 353.664 438.676 353.184C438.207 352.693 437.572 352.448 436.772 352.448ZM445.041 351.504C445.926 351.504 446.603 351.755 447.073 352.256C447.553 352.747 447.793 353.445 447.793 354.352V359.712H446.833L446.801 358.544C446.587 358.928 446.257 359.248 445.809 359.504C445.361 359.76 444.843 359.888 444.257 359.888C443.563 359.888 443.009 359.691 442.593 359.296C442.187 358.901 441.985 358.384 441.985 357.744C441.985 357.125 442.166 356.629 442.529 356.256C442.891 355.872 443.435 355.605 444.161 355.456L446.769 354.912V354.384C446.769 353.733 446.625 353.248 446.337 352.928C446.049 352.608 445.617 352.448 445.041 352.448C444.507 352.448 444.07 352.597 443.729 352.896C443.387 353.184 443.217 353.611 443.217 354.176H442.209C442.219 353.408 442.481 352.773 442.993 352.272C443.515 351.76 444.198 351.504 445.041 351.504ZM446.769 355.824L444.353 356.352C443.915 356.459 443.579 356.613 443.345 356.816C443.121 357.019 443.009 357.323 443.009 357.728C443.009 358.112 443.126 358.411 443.361 358.624C443.606 358.837 443.947 358.944 444.385 358.944C444.769 358.944 445.115 358.875 445.425 358.736C445.734 358.587 446.006 358.368 446.241 358.08C446.422 357.845 446.555 357.6 446.641 357.344C446.726 357.077 446.769 356.795 446.769 356.496V355.824ZM451.288 348.032V359.712H450.28V348.032H451.288ZM322.959 372.504C324.058 372.504 324.938 372.856 325.599 373.56C326.271 374.253 326.607 375.24 326.607 376.52V377.08H320.223C320.266 377.955 320.543 378.653 321.055 379.176C321.578 379.688 322.229 379.944 323.007 379.944C323.637 379.944 324.154 379.821 324.559 379.576C324.975 379.32 325.279 378.941 325.471 378.44H326.511C326.266 379.219 325.839 379.821 325.231 380.248C324.634 380.675 323.887 380.888 322.991 380.888C321.882 380.888 320.97 380.504 320.255 379.736C319.551 378.968 319.199 377.96 319.199 376.712C319.199 375.485 319.541 374.477 320.223 373.688C320.917 372.899 321.829 372.504 322.959 372.504ZM322.959 373.448C322.191 373.448 321.557 373.704 321.055 374.216C320.565 374.717 320.287 375.368 320.223 376.168H325.583C325.583 375.325 325.343 374.664 324.863 374.184C324.394 373.693 323.759 373.448 322.959 373.448ZM330.86 372.504C331.618 372.504 332.226 372.723 332.684 373.16C333.154 373.587 333.394 374.173 333.404 374.92H332.364C332.354 374.429 332.22 374.061 331.964 373.816C331.708 373.571 331.33 373.448 330.828 373.448C330.348 373.448 329.98 373.565 329.724 373.8C329.468 374.024 329.34 374.328 329.34 374.712C329.34 375.107 329.458 375.4 329.692 375.592C329.927 375.773 330.386 375.955 331.068 376.136C331.996 376.392 332.663 376.701 333.068 377.064C333.474 377.416 333.676 377.901 333.676 378.52C333.676 379.245 333.42 379.821 332.908 380.248C332.407 380.675 331.756 380.888 330.956 380.888C330.071 380.888 329.372 380.659 328.86 380.2C328.359 379.731 328.103 379.117 328.092 378.36H329.132C329.143 378.861 329.308 379.251 329.628 379.528C329.948 379.805 330.402 379.944 330.988 379.944C331.532 379.944 331.943 379.816 332.22 379.56C332.508 379.304 332.652 378.973 332.652 378.568C332.652 378.173 332.514 377.864 332.236 377.64C331.959 377.416 331.458 377.213 330.732 377.032C329.9 376.819 329.287 376.547 328.892 376.216C328.508 375.875 328.316 375.389 328.316 374.76C328.316 374.12 328.54 373.587 328.988 373.16C329.447 372.723 330.071 372.504 330.86 372.504ZM337.14 370.632L337.124 372.68H339.3V373.624H337.108L337.076 378.504C337.076 378.995 337.156 379.352 337.316 379.576C337.487 379.789 337.807 379.896 338.276 379.896C338.447 379.896 338.617 379.885 338.788 379.864C338.959 379.832 339.129 379.789 339.3 379.736V380.648C339.161 380.712 338.996 380.755 338.804 380.776C338.623 380.808 338.409 380.824 338.164 380.824C337.46 380.824 336.932 380.653 336.58 380.312C336.239 379.96 336.073 379.4 336.084 378.632L336.116 373.624H334.516V372.68H336.116L336.132 370.632H337.14ZM343.603 372.504C344.489 372.504 345.166 372.755 345.635 373.256C346.115 373.747 346.355 374.445 346.355 375.352V380.712H345.395L345.363 379.544C345.15 379.928 344.819 380.248 344.371 380.504C343.923 380.76 343.406 380.888 342.819 380.888C342.126 380.888 341.571 380.691 341.155 380.296C340.75 379.901 340.547 379.384 340.547 378.744C340.547 378.125 340.729 377.629 341.091 377.256C341.454 376.872 341.998 376.605 342.723 376.456L345.331 375.912V375.384C345.331 374.733 345.187 374.248 344.899 373.928C344.611 373.608 344.179 373.448 343.603 373.448C343.07 373.448 342.633 373.597 342.291 373.896C341.95 374.184 341.779 374.611 341.779 375.176H340.771C340.782 374.408 341.043 373.773 341.555 373.272C342.078 372.76 342.761 372.504 343.603 372.504ZM345.331 376.824L342.915 377.352C342.478 377.459 342.142 377.613 341.907 377.816C341.683 378.019 341.571 378.323 341.571 378.728C341.571 379.112 341.689 379.411 341.923 379.624C342.169 379.837 342.51 379.944 342.947 379.944C343.331 379.944 343.678 379.875 343.987 379.736C344.297 379.587 344.569 379.368 344.803 379.08C344.985 378.845 345.118 378.6 345.203 378.344C345.289 378.077 345.331 377.795 345.331 377.496V376.824ZM350.218 370.632L350.202 372.68H352.378V373.624H350.186L350.154 378.504C350.154 378.995 350.234 379.352 350.394 379.576C350.565 379.789 350.885 379.896 351.354 379.896C351.525 379.896 351.695 379.885 351.866 379.864C352.037 379.832 352.207 379.789 352.378 379.736V380.648C352.239 380.712 352.074 380.755 351.882 380.776C351.701 380.808 351.487 380.824 351.242 380.824C350.538 380.824 350.01 380.653 349.658 380.312C349.317 379.96 349.151 379.4 349.162 378.632L349.194 373.624H347.594V372.68H349.194L349.21 370.632H350.218ZM357.209 372.504C358.308 372.504 359.188 372.856 359.849 373.56C360.521 374.253 360.857 375.24 360.857 376.52V377.08H354.473C354.516 377.955 354.793 378.653 355.305 379.176C355.828 379.688 356.479 379.944 357.257 379.944C357.887 379.944 358.404 379.821 358.809 379.576C359.225 379.32 359.529 378.941 359.721 378.44H360.761C360.516 379.219 360.089 379.821 359.481 380.248C358.884 380.675 358.137 380.888 357.241 380.888C356.132 380.888 355.22 380.504 354.505 379.736C353.801 378.968 353.449 377.96 353.449 376.712C353.449 375.485 353.791 374.477 354.473 373.688C355.167 372.899 356.079 372.504 357.209 372.504ZM357.209 373.448C356.441 373.448 355.807 373.704 355.305 374.216C354.815 374.717 354.537 375.368 354.473 376.168H359.833C359.833 375.325 359.593 374.664 359.113 374.184C358.644 373.693 358.009 373.448 357.209 373.448ZM369.445 372.504C370.32 372.504 371.067 372.723 371.685 373.16C372.315 373.587 372.736 374.2 372.949 375H371.909C371.739 374.509 371.429 374.131 370.981 373.864C370.544 373.587 370.037 373.448 369.461 373.448C368.651 373.448 367.979 373.757 367.445 374.376C366.912 374.995 366.645 375.773 366.645 376.712C366.645 377.629 366.912 378.397 367.445 379.016C367.989 379.635 368.667 379.944 369.477 379.944C370.053 379.944 370.56 379.805 370.997 379.528C371.435 379.251 371.739 378.872 371.909 378.392H372.949C372.725 379.192 372.299 379.811 371.669 380.248C371.051 380.675 370.309 380.888 369.445 380.888C368.336 380.888 367.419 380.493 366.693 379.704C365.979 378.904 365.621 377.907 365.621 376.712C365.621 375.496 365.979 374.493 366.693 373.704C367.419 372.904 368.336 372.504 369.445 372.504ZM381.095 373.688C381.831 374.477 382.199 375.48 382.199 376.696C382.199 377.912 381.831 378.915 381.095 379.704C380.359 380.493 379.399 380.888 378.215 380.888C377.031 380.888 376.071 380.493 375.335 379.704C374.588 378.915 374.215 377.912 374.215 376.696C374.215 375.48 374.588 374.477 375.335 373.688C376.071 372.899 377.031 372.504 378.215 372.504C379.399 372.504 380.359 372.899 381.095 373.688ZM378.231 373.448C377.335 373.448 376.61 373.757 376.055 374.376C375.511 374.984 375.239 375.757 375.239 376.696C375.239 377.635 375.511 378.413 376.055 379.032C376.61 379.64 377.335 379.944 378.231 379.944C379.116 379.944 379.826 379.64 380.359 379.032C380.903 378.413 381.175 377.635 381.175 376.696C381.175 375.757 380.903 374.984 380.359 374.376C379.826 373.757 379.116 373.448 378.231 373.448ZM385.147 369.032V380.712H384.139V369.032H385.147ZM388.834 369.032V380.712H387.826V369.032H388.834ZM393.994 372.504C394.879 372.504 395.557 372.755 396.026 373.256C396.506 373.747 396.746 374.445 396.746 375.352V380.712H395.786L395.754 379.544C395.541 379.928 395.21 380.248 394.762 380.504C394.314 380.76 393.797 380.888 393.21 380.888C392.517 380.888 391.962 380.691 391.546 380.296C391.141 379.901 390.938 379.384 390.938 378.744C390.938 378.125 391.119 377.629 391.482 377.256C391.845 376.872 392.389 376.605 393.114 376.456L395.722 375.912V375.384C395.722 374.733 395.578 374.248 395.29 373.928C395.002 373.608 394.57 373.448 393.994 373.448C393.461 373.448 393.023 373.597 392.682 373.896C392.341 374.184 392.17 374.611 392.17 375.176H391.162C391.173 374.408 391.434 373.773 391.946 373.272C392.469 372.76 393.151 372.504 393.994 372.504ZM395.722 376.824L393.306 377.352C392.869 377.459 392.533 377.613 392.298 377.816C392.074 378.019 391.962 378.323 391.962 378.728C391.962 379.112 392.079 379.411 392.314 379.624C392.559 379.837 392.901 379.944 393.338 379.944C393.722 379.944 394.069 379.875 394.378 379.736C394.687 379.587 394.959 379.368 395.194 379.08C395.375 378.845 395.509 378.6 395.594 378.344C395.679 378.077 395.722 377.795 395.722 377.496V376.824ZM400.609 370.632L400.593 372.68H402.769V373.624H400.577L400.545 378.504C400.545 378.995 400.625 379.352 400.785 379.576C400.955 379.789 401.275 379.896 401.745 379.896C401.915 379.896 402.086 379.885 402.257 379.864C402.427 379.832 402.598 379.789 402.769 379.736V380.648C402.63 380.712 402.465 380.755 402.273 380.776C402.091 380.808 401.878 380.824 401.633 380.824C400.929 380.824 400.401 380.653 400.049 380.312C399.707 379.96 399.542 379.4 399.553 378.632L399.585 373.624H397.985V372.68H399.585L399.601 370.632H400.609ZM407.6 372.504C408.699 372.504 409.579 372.856 410.24 373.56C410.912 374.253 411.248 375.24 411.248 376.52V377.08H404.864C404.907 377.955 405.184 378.653 405.696 379.176C406.219 379.688 406.869 379.944 407.648 379.944C408.277 379.944 408.795 379.821 409.2 379.576C409.616 379.32 409.92 378.941 410.112 378.44H411.152C410.907 379.219 410.48 379.821 409.872 380.248C409.275 380.675 408.528 380.888 407.632 380.888C406.523 380.888 405.611 380.504 404.896 379.736C404.192 378.968 403.84 377.96 403.84 376.712C403.84 375.485 404.181 374.477 404.864 373.688C405.557 372.899 406.469 372.504 407.6 372.504ZM407.6 373.448C406.832 373.448 406.197 373.704 405.696 374.216C405.205 374.717 404.928 375.368 404.864 376.168H410.224C410.224 375.325 409.984 374.664 409.504 374.184C409.035 373.693 408.4 373.448 407.6 373.448ZM416.861 372.6V373.592C416.53 373.592 416.226 373.645 415.949 373.752C415.682 373.859 415.442 374.024 415.229 374.248C414.973 374.493 414.781 374.792 414.653 375.144C414.525 375.496 414.461 375.901 414.461 376.36V380.712H413.453V372.68H414.397L414.429 374.136C414.589 373.709 414.872 373.347 415.277 373.048C415.693 372.749 416.221 372.6 416.861 372.6ZM421.056 372.504C421.942 372.504 422.619 372.755 423.088 373.256C423.568 373.747 423.808 374.445 423.808 375.352V380.712H422.848L422.816 379.544C422.603 379.928 422.272 380.248 421.824 380.504C421.376 380.76 420.859 380.888 420.272 380.888C419.579 380.888 419.024 380.691 418.608 380.296C418.203 379.901 418 379.384 418 378.744C418 378.125 418.182 377.629 418.544 377.256C418.907 376.872 419.451 376.605 420.176 376.456L422.784 375.912V375.384C422.784 374.733 422.64 374.248 422.352 373.928C422.064 373.608 421.632 373.448 421.056 373.448C420.523 373.448 420.086 373.597 419.744 373.896C419.403 374.184 419.232 374.611 419.232 375.176H418.224C418.235 374.408 418.496 373.773 419.008 373.272C419.531 372.76 420.214 372.504 421.056 372.504ZM422.784 376.824L420.368 377.352C419.931 377.459 419.595 377.613 419.36 377.816C419.136 378.019 419.024 378.323 419.024 378.728C419.024 379.112 419.142 379.411 419.376 379.624C419.622 379.837 419.963 379.944 420.4 379.944C420.784 379.944 421.131 379.875 421.44 379.736C421.75 379.587 422.022 379.368 422.256 379.08C422.438 378.845 422.571 378.6 422.656 378.344C422.742 378.077 422.784 377.795 422.784 377.496V376.824ZM427.303 369.032V380.712H426.295V369.032H427.303Z" fill="#000039"/>
    <path d="M13.4028 367.873V375.905H12.3948V367.873H13.4028ZM12.9068 364.545C13.1201 364.545 13.3014 364.625 13.4508 364.785C13.6108 364.935 13.6908 365.116 13.6908 365.329C13.6908 365.543 13.6108 365.724 13.4508 365.873C13.3014 366.023 13.1201 366.097 12.9068 366.097C12.6828 366.097 12.4961 366.023 12.3468 365.873C12.1974 365.724 12.1228 365.543 12.1228 365.329C12.1228 365.116 12.1974 364.935 12.3468 364.785C12.4961 364.625 12.6828 364.545 12.9068 364.545ZM19.2983 367.697C20.1409 367.697 20.7863 367.975 21.2343 368.529C21.6929 369.084 21.9223 369.815 21.9223 370.721V375.905H20.9143V370.817C20.9143 370.124 20.7543 369.596 20.4343 369.233C20.1249 368.86 19.6929 368.673 19.1383 368.673C18.5196 368.673 18.0129 368.924 17.6183 369.425C17.2236 369.927 17.0263 370.599 17.0263 371.441V375.905H16.0183V367.873H16.9463L16.9943 369.089C17.1543 368.716 17.4423 368.391 17.8583 368.113C18.2743 367.836 18.7543 367.697 19.2983 367.697ZM30.698 367.873L27.53 375.905H26.554L23.386 367.873H24.458L26.874 374.097L27.034 374.657L27.21 374.097L29.61 367.873H30.698ZM35.3403 367.697C36.4389 367.697 37.3189 368.049 37.9803 368.753C38.6523 369.447 38.9883 370.433 38.9883 371.713V372.273H32.6043C32.6469 373.148 32.9243 373.847 33.4363 374.369C33.9589 374.881 34.6096 375.137 35.3883 375.137C36.0176 375.137 36.5349 375.015 36.9403 374.769C37.3563 374.513 37.6603 374.135 37.8523 373.633H38.8923C38.6469 374.412 38.2203 375.015 37.6123 375.441C37.0149 375.868 36.2683 376.081 35.3723 376.081C34.2629 376.081 33.3509 375.697 32.6363 374.929C31.9323 374.161 31.5803 373.153 31.5803 371.905C31.5803 370.679 31.9216 369.671 32.6043 368.881C33.2976 368.092 34.2096 367.697 35.3403 367.697ZM35.3403 368.641C34.5723 368.641 33.9376 368.897 33.4363 369.409C32.9456 369.911 32.6683 370.561 32.6043 371.361H37.9643C37.9643 370.519 37.7243 369.857 37.2443 369.377C36.7749 368.887 36.1403 368.641 35.3403 368.641ZM43.2412 367.697C43.9985 367.697 44.6065 367.916 45.0652 368.353C45.5345 368.78 45.7745 369.367 45.7852 370.113H44.7452C44.7345 369.623 44.6012 369.255 44.3452 369.009C44.0892 368.764 43.7105 368.641 43.2092 368.641C42.7292 368.641 42.3612 368.759 42.1052 368.993C41.8492 369.217 41.7212 369.521 41.7212 369.905C41.7212 370.3 41.8385 370.593 42.0732 370.785C42.3078 370.967 42.7665 371.148 43.4492 371.329C44.3772 371.585 45.0438 371.895 45.4492 372.257C45.8545 372.609 46.0572 373.095 46.0572 373.713C46.0572 374.439 45.8012 375.015 45.2892 375.441C44.7878 375.868 44.1372 376.081 43.3372 376.081C42.4518 376.081 41.7532 375.852 41.2412 375.393C40.7398 374.924 40.4838 374.311 40.4732 373.553H41.5132C41.5238 374.055 41.6892 374.444 42.0092 374.721C42.3292 374.999 42.7825 375.137 43.3692 375.137C43.9132 375.137 44.3238 375.009 44.6012 374.753C44.8892 374.497 45.0332 374.167 45.0332 373.761C45.0332 373.367 44.8945 373.057 44.6172 372.833C44.3398 372.609 43.8385 372.407 43.1132 372.225C42.2812 372.012 41.6678 371.74 41.2732 371.409C40.8892 371.068 40.6972 370.583 40.6972 369.953C40.6972 369.313 40.9212 368.78 41.3692 368.353C41.8278 367.916 42.4518 367.697 43.2412 367.697ZM49.5208 365.825L49.5048 367.873H51.6808V368.817H49.4888L49.4568 373.697C49.4568 374.188 49.5368 374.545 49.6968 374.769C49.8674 374.983 50.1874 375.089 50.6568 375.089C50.8274 375.089 50.9981 375.079 51.1688 375.057C51.3394 375.025 51.5101 374.983 51.6808 374.929V375.841C51.5421 375.905 51.3768 375.948 51.1848 375.969C51.0034 376.001 50.7901 376.017 50.5448 376.017C49.8408 376.017 49.3128 375.847 48.9608 375.505C48.6194 375.153 48.4541 374.593 48.4648 373.825L48.4968 368.817H46.8968V367.873H48.4968L48.5128 365.825H49.5208ZM56.5122 367.697C57.6108 367.697 58.4908 368.049 59.1522 368.753C59.8242 369.447 60.1602 370.433 60.1602 371.713V372.273H53.7762C53.8188 373.148 54.0962 373.847 54.6082 374.369C55.1308 374.881 55.7815 375.137 56.5602 375.137C57.1895 375.137 57.7068 375.015 58.1122 374.769C58.5282 374.513 58.8322 374.135 59.0242 373.633H60.0642C59.8188 374.412 59.3922 375.015 58.7842 375.441C58.1868 375.868 57.4402 376.081 56.5442 376.081C55.4348 376.081 54.5228 375.697 53.8082 374.929C53.1042 374.161 52.7522 373.153 52.7522 371.905C52.7522 370.679 53.0935 369.671 53.7762 368.881C54.4695 368.092 55.3815 367.697 56.5122 367.697ZM56.5122 368.641C55.7442 368.641 55.1095 368.897 54.6082 369.409C54.1175 369.911 53.8402 370.561 53.7762 371.361H59.1362C59.1362 370.519 58.8962 369.857 58.4162 369.377C57.9468 368.887 57.3122 368.641 56.5122 368.641ZM69.133 364.225V375.905H68.205L68.173 374.545C67.9384 374.951 67.5704 375.308 67.069 375.617C66.5677 375.927 65.9757 376.081 65.293 376.081C64.1517 376.081 63.2397 375.687 62.557 374.897C61.885 374.108 61.549 373.105 61.549 371.889C61.549 370.673 61.8904 369.671 62.573 368.881C63.2557 368.092 64.1677 367.697 65.309 367.697C65.981 367.697 66.5677 367.847 67.069 368.145C67.5704 368.444 67.9277 368.801 68.141 369.217V364.225H69.133ZM65.405 368.657C64.5624 368.657 63.8797 368.961 63.357 369.569C62.8344 370.177 62.573 370.951 62.573 371.889C62.573 372.839 62.829 373.617 63.341 374.225C63.853 374.833 64.5357 375.137 65.389 375.137C66.1464 375.137 66.7917 374.865 67.325 374.321C67.869 373.767 68.141 373.031 68.141 372.113V371.777C68.141 370.828 67.869 370.071 67.325 369.505C66.7917 368.94 66.1517 368.657 65.405 368.657ZM77.2412 367.697C77.9985 367.697 78.6065 367.916 79.0652 368.353C79.5345 368.78 79.7745 369.367 79.7852 370.113H78.7452C78.7345 369.623 78.6012 369.255 78.3452 369.009C78.0892 368.764 77.7105 368.641 77.2092 368.641C76.7292 368.641 76.3612 368.759 76.1052 368.993C75.8492 369.217 75.7212 369.521 75.7212 369.905C75.7212 370.3 75.8385 370.593 76.0732 370.785C76.3078 370.967 76.7665 371.148 77.4492 371.329C78.3772 371.585 79.0438 371.895 79.4492 372.257C79.8545 372.609 80.0572 373.095 80.0572 373.713C80.0572 374.439 79.8012 375.015 79.2892 375.441C78.7878 375.868 78.1372 376.081 77.3372 376.081C76.4518 376.081 75.7532 375.852 75.2412 375.393C74.7398 374.924 74.4838 374.311 74.4732 373.553H75.5132C75.5238 374.055 75.6892 374.444 76.0092 374.721C76.3292 374.999 76.7825 375.137 77.3692 375.137C77.9132 375.137 78.3238 375.009 78.6012 374.753C78.8892 374.497 79.0332 374.167 79.0332 373.761C79.0332 373.367 78.8945 373.057 78.6172 372.833C78.3398 372.609 77.8385 372.407 77.1132 372.225C76.2812 372.012 75.6678 371.74 75.2732 371.409C74.8892 371.068 74.6972 370.583 74.6972 369.953C74.6972 369.313 74.9212 368.78 75.3692 368.353C75.8278 367.916 76.4518 367.697 77.2412 367.697ZM83.1528 367.873V375.905H82.1448V367.873H83.1528ZM82.6568 364.545C82.8701 364.545 83.0514 364.625 83.2008 364.785C83.3608 364.935 83.4408 365.116 83.4408 365.329C83.4408 365.543 83.3608 365.724 83.2008 365.873C83.0514 366.023 82.8701 366.097 82.6568 366.097C82.4328 366.097 82.2461 366.023 82.0968 365.873C81.9474 365.724 81.8728 365.543 81.8728 365.329C81.8728 365.116 81.9474 364.935 82.0968 364.785C82.2461 364.625 82.4328 364.545 82.6568 364.545ZM89.0483 367.697C89.8909 367.697 90.5363 367.975 90.9843 368.529C91.4429 369.084 91.6723 369.815 91.6723 370.721V375.905H90.6643V370.817C90.6643 370.124 90.5043 369.596 90.1843 369.233C89.8749 368.86 89.4429 368.673 88.8883 368.673C88.2696 368.673 87.7629 368.924 87.3683 369.425C86.9736 369.927 86.7763 370.599 86.7763 371.441V375.905H85.7683V367.873H86.6963L86.7443 369.089C86.9043 368.716 87.1923 368.391 87.6083 368.113C88.0243 367.836 88.5043 367.697 89.0483 367.697ZM97.248 367.697C98.1227 367.697 98.8694 367.916 99.488 368.353C100.117 368.78 100.539 369.393 100.752 370.193H99.712C99.5414 369.703 99.232 369.324 98.784 369.057C98.3467 368.78 97.84 368.641 97.264 368.641C96.4534 368.641 95.7814 368.951 95.248 369.569C94.7147 370.188 94.448 370.967 94.448 371.905C94.448 372.823 94.7147 373.591 95.248 374.209C95.792 374.828 96.4694 375.137 97.28 375.137C97.856 375.137 98.3627 374.999 98.8 374.721C99.2374 374.444 99.5414 374.065 99.712 373.585H100.752C100.528 374.385 100.101 375.004 99.472 375.441C98.8534 375.868 98.112 376.081 97.248 376.081C96.1387 376.081 95.2214 375.687 94.496 374.897C93.7814 374.097 93.424 373.1 93.424 371.905C93.424 370.689 93.7814 369.687 94.496 368.897C95.2214 368.097 96.1387 367.697 97.248 367.697ZM105.778 367.697C106.876 367.697 107.756 368.049 108.418 368.753C109.09 369.447 109.426 370.433 109.426 371.713V372.273H103.042C103.084 373.148 103.362 373.847 103.874 374.369C104.396 374.881 105.047 375.137 105.826 375.137C106.455 375.137 106.972 375.015 107.378 374.769C107.794 374.513 108.098 374.135 108.29 373.633H109.33C109.084 374.412 108.658 375.015 108.05 375.441C107.452 375.868 106.706 376.081 105.81 376.081C104.7 376.081 103.788 375.697 103.074 374.929C102.37 374.161 102.018 373.153 102.018 371.905C102.018 370.679 102.359 369.671 103.042 368.881C103.735 368.092 104.647 367.697 105.778 367.697ZM105.778 368.641C105.01 368.641 104.375 368.897 103.874 369.409C103.383 369.911 103.106 370.561 103.042 371.361H108.402C108.402 370.519 108.162 369.857 107.682 369.377C107.212 368.887 106.578 368.641 105.778 368.641ZM117.486 364.497C118.446 364.497 119.182 364.769 119.694 365.313C120.216 365.847 120.478 366.583 120.478 367.521C120.478 368.033 120.366 368.567 120.142 369.121C119.928 369.665 119.598 370.231 119.15 370.817L115.998 374.913H120.734V375.905H114.542V375.121L118.238 370.337C118.675 369.783 118.979 369.303 119.15 368.897C119.32 368.492 119.406 368.044 119.406 367.553C119.406 366.86 119.246 366.343 118.926 366.001C118.606 365.66 118.12 365.489 117.47 365.489C116.872 365.489 116.387 365.687 116.014 366.081C115.651 366.476 115.47 367.063 115.47 367.841H114.414C114.414 366.817 114.691 366.007 115.246 365.409C115.811 364.801 116.558 364.497 117.486 364.497ZM129.364 370.289C129.364 372.071 129.044 373.489 128.404 374.545C127.764 375.591 126.868 376.113 125.716 376.113C124.554 376.113 123.652 375.591 123.012 374.545C122.383 373.489 122.068 372.071 122.068 370.289C122.068 368.508 122.383 367.1 123.012 366.065C123.652 365.02 124.554 364.497 125.716 364.497C126.879 364.497 127.775 365.02 128.404 366.065C129.044 367.111 129.364 368.519 129.364 370.289ZM125.716 365.489C124.874 365.489 124.234 365.916 123.796 366.769C123.359 367.623 123.14 368.796 123.14 370.289C123.14 371.793 123.359 372.977 123.796 373.841C124.234 374.695 124.874 375.121 125.716 375.121C126.548 375.121 127.183 374.689 127.62 373.825C128.058 372.961 128.276 371.783 128.276 370.289C128.276 368.796 128.058 367.623 127.62 366.769C127.183 365.916 126.548 365.489 125.716 365.489ZM133.922 364.705V375.905H132.866V366.881H130.514V365.985C131.388 365.985 132.002 365.9 132.354 365.729C132.706 365.559 132.946 365.217 133.074 364.705H133.922ZM139.207 376.113C138.343 376.113 137.628 375.852 137.063 375.329C136.498 374.796 136.194 374.081 136.151 373.185H137.223C137.298 373.825 137.5 374.311 137.831 374.641C138.172 374.961 138.642 375.121 139.239 375.121C140.103 375.121 140.748 374.721 141.175 373.921C141.612 373.121 141.836 371.847 141.847 370.097C141.634 370.492 141.287 370.823 140.807 371.089C140.327 371.356 139.81 371.489 139.255 371.489C138.22 371.489 137.399 371.164 136.791 370.513C136.194 369.852 135.895 369.031 135.895 368.049C135.895 367.036 136.204 366.193 136.823 365.521C137.442 364.839 138.263 364.497 139.287 364.497C139.81 364.497 140.279 364.588 140.695 364.769C141.122 364.951 141.5 365.223 141.831 365.585C142.194 365.991 142.466 366.561 142.647 367.297C142.828 368.023 142.919 368.919 142.919 369.985C142.919 372.001 142.62 373.527 142.023 374.561C141.436 375.596 140.498 376.113 139.207 376.113ZM139.303 370.513C139.954 370.513 140.514 370.279 140.983 369.809C141.463 369.329 141.703 368.743 141.703 368.049C141.703 367.388 141.479 366.796 141.031 366.273C140.583 365.74 140.007 365.473 139.303 365.473C138.61 365.473 138.05 365.719 137.623 366.209C137.196 366.689 136.983 367.297 136.983 368.033C136.983 368.727 137.196 369.313 137.623 369.793C138.05 370.273 138.61 370.513 139.303 370.513Z" fill="#000039"/>
    <path d="M256.049 227.59L318.608 179.476" stroke="#000039" stroke-miterlimit="10"/>
    <path d="M255.946 148.775L318.608 11.1647" stroke="#000039" stroke-miterlimit="10"/>
    <path d="M524.541 179.476L318.805 227.59" stroke="#000039" stroke-miterlimit="10"/>
    <path d="M318.608 179.564L524.541 179.564V11.2525L318.608 11.2525V179.564Z" stroke="#000039" stroke-miterlimit="10"/>
    <path d="M256.049 148.462V227.59H318.805" stroke="#000039" stroke-miterlimit="10"/>
    <path d="M256.024 227.59H216.043" stroke="#000039" stroke-miterlimit="10"/>
    <path d="M256.027 227.59L305.223 276.818" stroke="#000039" stroke-miterlimit="10"/>
    <path d="M256.027 265.216L305.223 444.78" stroke="#000039" stroke-miterlimit="10"/>
    <path d="M488.971 276.48L318.806 227.59" stroke="#000039" stroke-miterlimit="10"/>
    <path d="M305.244 444.693H488.659V276.731H305.244V444.693Z" stroke="#000039" stroke-miterlimit="10"/>
    <path d="M256.027 265.216V227.59H318.805" stroke="#000039" stroke-miterlimit="10"/>
    <path d="M256.05 227.59L172.048 293.927" stroke="#000039" stroke-miterlimit="10"/>
    <path d="M256.05 265.216L172.048 402.391" stroke="#000039" stroke-miterlimit="10"/>
    <path d="M1.00781 293.927L216.046 227.59" stroke="#000039" stroke-miterlimit="10"/>
    <path d="M172.025 293.84H1.00781V402.304H172.025V293.84Z" stroke="#000039" stroke-miterlimit="10"/>
    <path d="M256.049 265.216V227.59H216.046" stroke="#000039" stroke-miterlimit="10"/>
</svg>