<svg width="330" height="279" viewBox="0 0 330 279" fill="none" xmlns="http://www.w3.org/2000/svg">
    <path d="M225.865 34.2872C233.383 39.0988 235.127 42.0459 235.127 46.3763C235.127 52.8118 229.353 58.1046 221.895 58.1046C213.716 58.1046 208.423 52.9321 208.423 46.9176C208.423 42.0459 211.55 37.7154 217.866 35.4299C212.152 31.8212 210.347 28.5734 210.347 24.9647C210.347 19.1907 215.4 14.3791 222.016 14.3791C228.752 14.3791 233.804 18.7697 233.804 24.4234C233.804 28.9342 230.496 32.6031 225.865 34.2872ZM214.618 22.619C214.618 25.7466 216.482 28.4531 221.234 31.4002L224.902 33.6857C224.963 33.6857 225.023 33.7459 225.023 33.7459C227.789 32.0016 229.353 28.814 229.353 25.0248C229.353 19.311 226.466 15.582 221.835 15.582C217.685 15.582 214.618 18.3487 214.618 22.619ZM222.256 56.9017C227.609 56.9017 230.496 52.9321 230.496 48.5415C230.496 43.9705 227.368 41.1437 222.196 38.0162L218.768 35.9712C214.738 38.4973 213.294 42.2263 213.294 46.256C213.294 52.03 216.963 56.9017 222.256 56.9017ZM251.308 33.1444C257.803 34.5277 262.374 39.3393 262.374 45.3538C262.374 52.6915 256.059 58.1046 249.383 58.1046C242.767 58.1046 238.617 55.2778 236.752 52.1502C237.715 50.4662 239.218 49.7444 240.722 49.7444C241.925 49.7444 242.707 50.2857 243.729 51.7894C245.895 54.9771 246.797 56.9017 250.165 56.9017C253.713 56.9017 257.142 53.8944 257.142 47.3386C257.142 39.7002 251.007 35.7306 244.812 35.7306V35.069C249.563 33.8661 255.277 30.6183 255.277 24.5437C255.277 20.3936 252.51 18.1081 248.18 18.1081C243.429 18.1081 240.662 20.7545 238.918 23.461L238.136 23.1002C239.94 19.1306 243.489 14.4393 250.225 14.4393C257.021 14.4393 260.57 18.6494 260.57 22.9799C260.57 29.3553 254.796 32.3625 251.308 33.1444ZM280.778 58.0445C272.237 58.0445 266.463 49.0828 266.463 36.3321C266.463 23.5212 272.237 14.3791 280.778 14.3791C289.318 14.3791 295.092 23.3408 295.092 36.0915C295.092 48.9024 289.318 58.0445 280.778 58.0445ZM281.199 56.8416C286.251 56.8416 289.078 48.4814 289.078 36.8133C289.078 24.6038 286.371 15.582 280.357 15.582C275.305 15.582 272.478 23.9422 272.478 35.6103C272.478 47.7597 275.244 56.8416 281.199 56.8416Z" fill="#000039"/>
    <path d="M218.34 207.113V206.727L219.112 206.657C220.867 206.482 221.744 206.166 221.744 204.271V187.782C221.744 186.624 221.463 186.203 219.954 186.203H218.34V185.887C221.323 185.01 222.621 183.677 224.55 182.168H224.831V204.271C224.831 206.166 225.778 206.482 227.533 206.657L228.234 206.727V207.113H218.34ZM237.255 193.044C241.045 193.851 243.711 196.658 243.711 200.167C243.711 204.447 240.027 207.604 236.133 207.604C232.273 207.604 229.853 205.956 228.765 204.131C229.326 203.149 230.203 202.728 231.081 202.728C231.782 202.728 232.238 203.043 232.835 203.921C234.098 205.78 234.624 206.903 236.589 206.903C238.659 206.903 240.659 205.149 240.659 201.324C240.659 196.869 237.08 194.553 233.466 194.553V194.167C236.238 193.465 239.571 191.571 239.571 188.027C239.571 185.606 237.957 184.273 235.431 184.273C232.659 184.273 231.045 185.817 230.028 187.396L229.572 187.185C230.624 184.87 232.694 182.133 236.624 182.133C240.588 182.133 242.658 184.589 242.658 187.115C242.658 190.834 239.29 192.588 237.255 193.044ZM254.446 207.569C249.464 207.569 246.096 202.342 246.096 194.904C246.096 187.431 249.464 182.098 254.446 182.098C259.428 182.098 262.796 187.326 262.796 194.764C262.796 202.237 259.428 207.569 254.446 207.569ZM254.692 206.868C257.639 206.868 259.288 201.991 259.288 195.185C259.288 188.062 257.709 182.8 254.201 182.8C251.254 182.8 249.605 187.676 249.605 194.483C249.605 201.57 251.219 206.868 254.692 206.868ZM292.862 183.08C291.704 183.221 290.722 183.607 290.722 185.045V204.622C290.722 206.061 291.704 206.341 292.862 206.552L293.494 206.657V207.113H284.722V206.657L285.354 206.552C286.512 206.341 287.494 206.061 287.494 204.622V185.361L278.302 207.113H277.846L268.408 185.326V203.921C268.408 205.885 269.285 206.447 270.618 206.587L271.215 206.657V207.113H264.759V206.657L265.321 206.587C266.654 206.412 267.531 205.885 267.531 203.921V185.045C267.531 183.607 266.549 183.221 265.391 183.08L264.759 183.01V182.554H270.548L279.249 202.622L287.74 182.554H293.494V183.01L292.862 183.08Z" fill="#000039"/>
    <path d="M37.3619 53.0784C41.7474 55.8852 42.7649 57.6044 42.7649 60.1305C42.7649 63.8845 39.3968 66.972 35.0463 66.972C30.2748 66.972 27.1873 63.9547 27.1873 60.4462C27.1873 57.6044 29.0117 55.0783 32.6956 53.7451C29.3626 51.64 28.31 49.7454 28.31 47.6403C28.31 44.2722 31.2571 41.4654 35.1164 41.4654C39.0459 41.4654 41.993 44.0266 41.993 47.3246C41.993 49.9559 40.0634 52.0961 37.3619 53.0784ZM30.801 46.272C30.801 48.0964 31.8887 49.6752 34.6603 51.3944L36.8005 52.7276C36.8356 52.7276 36.8707 52.7627 36.8707 52.7627C38.4846 51.7452 39.3968 49.8857 39.3968 47.6754C39.3968 44.3424 37.7127 42.1671 35.0112 42.1671C32.5904 42.1671 30.801 43.781 30.801 46.272ZM35.2568 66.2703C38.3793 66.2703 40.0634 63.9547 40.0634 61.3935C40.0634 58.7271 38.239 57.0781 35.2217 55.2537L33.2219 54.0608C30.8712 55.5344 30.0292 57.7096 30.0292 60.0603C30.0292 63.4284 32.1693 66.2703 35.2568 66.2703ZM54.8699 53.0784C59.2555 55.8852 60.2729 57.6044 60.2729 60.1305C60.2729 63.8845 56.9048 66.972 52.5543 66.972C47.7828 66.972 44.6954 63.9547 44.6954 60.4462C44.6954 57.6044 46.5198 55.0783 50.2037 53.7451C46.8706 51.64 45.8181 49.7454 45.8181 47.6403C45.8181 44.2722 48.7652 41.4654 52.6245 41.4654C56.554 41.4654 59.5011 44.0266 59.5011 47.3246C59.5011 49.9559 57.5714 52.0961 54.8699 53.0784ZM48.3091 46.272C48.3091 48.0964 49.3967 49.6752 52.1684 51.3944L54.3086 52.7276C54.3436 52.7276 54.3787 52.7627 54.3787 52.7627C55.9926 51.7452 56.9048 49.8857 56.9048 47.6754C56.9048 44.3424 55.2208 42.1671 52.5192 42.1671C50.0984 42.1671 48.3091 43.781 48.3091 46.272ZM52.7648 66.2703C55.8874 66.2703 57.5714 63.9547 57.5714 61.3935C57.5714 58.7271 55.747 57.0781 52.7297 55.2537L50.7299 54.0608C48.3793 55.5344 47.5372 57.7096 47.5372 60.0603C47.5372 63.4284 49.6774 66.2703 52.7648 66.2703ZM90.1308 42.4478C88.973 42.5881 87.9906 42.9741 87.9906 44.4125V63.9898C87.9906 65.4282 88.973 65.7089 90.1308 65.9194L90.7623 66.0247V66.4808H81.9912V66.0247L82.6227 65.9194C83.7805 65.7089 84.7628 65.4282 84.7628 63.9898V44.7283L75.5707 66.4808H75.1146L65.6768 44.6932V63.2881C65.6768 65.2528 66.5539 65.8142 67.8871 65.9545L68.4836 66.0247V66.4808H62.028V66.0247L62.5894 65.9545C63.9226 65.7791 64.7997 65.2528 64.7997 63.2881V44.4125C64.7997 42.9741 63.8173 42.5881 62.6595 42.4478L62.028 42.3776V41.9215H67.817L76.518 61.9899L85.0084 41.9215H90.7623V42.3776L90.1308 42.4478Z" fill="#000039"/>
    <path d="M209.566 66.1448C210.113 66.1448 210.581 66.2818 210.969 66.5558C211.363 66.8231 211.627 67.2074 211.761 67.7086H211.109C211.002 67.4012 210.808 67.1639 210.528 66.9969C210.254 66.8231 209.936 66.7362 209.576 66.7362C209.068 66.7362 208.647 66.93 208.312 67.3176C207.978 67.7052 207.811 68.1931 207.811 68.7812C207.811 69.3559 207.978 69.837 208.312 70.2246C208.653 70.6122 209.078 70.806 209.586 70.806C209.946 70.806 210.264 70.7192 210.538 70.5454C210.812 70.3717 211.002 70.1344 211.109 69.8337H211.761C211.62 70.3349 211.353 70.7225 210.959 70.9965C210.571 71.2638 210.107 71.3975 209.566 71.3975C208.87 71.3975 208.296 71.1502 207.841 70.6557C207.394 70.1545 207.17 69.5296 207.17 68.7812C207.17 68.0193 207.394 67.3911 207.841 66.8966C208.296 66.3954 208.87 66.1448 209.566 66.1448ZM214.579 66.1448C215.133 66.1448 215.558 66.3018 215.852 66.6159C216.152 66.9233 216.303 67.3611 216.303 67.9291V71.2872H215.701L215.681 70.5554C215.548 70.796 215.341 70.9965 215.06 71.1569C214.779 71.3173 214.455 71.3975 214.088 71.3975C213.653 71.3975 213.306 71.2738 213.045 71.0266C212.791 70.7793 212.664 70.4552 212.664 70.0542C212.664 69.6666 212.778 69.3559 213.005 69.122C213.232 68.8814 213.573 68.7143 214.027 68.6208L215.661 68.2799V67.9491C215.661 67.5415 215.571 67.2374 215.391 67.0369C215.21 66.8365 214.94 66.7362 214.579 66.7362C214.245 66.7362 213.971 66.8298 213.757 67.0169C213.543 67.1973 213.436 67.4646 213.436 67.8188H212.804C212.811 67.3377 212.975 66.94 213.296 66.626C213.623 66.3052 214.051 66.1448 214.579 66.1448ZM215.661 68.8513L214.148 69.1821C213.874 69.249 213.663 69.3459 213.516 69.4728C213.376 69.5998 213.306 69.7903 213.306 70.0442C213.306 70.2848 213.379 70.4719 213.526 70.6056C213.68 70.7392 213.894 70.806 214.168 70.806C214.408 70.806 214.625 70.7626 214.819 70.6757C215.013 70.5822 215.183 70.4452 215.331 70.2647C215.444 70.1177 215.528 69.964 215.581 69.8036C215.635 69.6366 215.661 69.4595 215.661 69.2723V68.8513ZM219.184 66.1448C219.658 66.1448 220.039 66.2818 220.327 66.5558C220.621 66.8231 220.771 67.1907 220.778 67.6584H220.126C220.12 67.351 220.036 67.1205 219.876 66.9668C219.715 66.8131 219.478 66.7362 219.164 66.7362C218.863 66.7362 218.633 66.8097 218.472 66.9568C218.312 67.0971 218.232 67.2876 218.232 67.5281C218.232 67.7754 218.305 67.9592 218.452 68.0795C218.599 68.1931 218.887 68.3067 219.314 68.4203C219.896 68.5807 220.313 68.7745 220.567 69.0017C220.821 69.2222 220.948 69.5263 220.948 69.9139C220.948 70.3683 220.788 70.7292 220.467 70.9965C220.153 71.2638 219.745 71.3975 219.244 71.3975C218.689 71.3975 218.252 71.2538 217.931 70.9664C217.617 70.6724 217.457 70.2881 217.45 69.8136H218.101C218.108 70.1277 218.212 70.3717 218.412 70.5454C218.613 70.7192 218.897 70.806 219.264 70.806C219.605 70.806 219.862 70.7258 220.036 70.5655C220.217 70.4051 220.307 70.1979 220.307 69.944C220.307 69.6967 220.22 69.5029 220.046 69.3626C219.872 69.2222 219.558 69.0952 219.104 68.9816C218.583 68.848 218.198 68.6776 217.951 68.4704C217.71 68.2566 217.59 67.9525 217.59 67.5582C217.59 67.1572 217.731 66.8231 218.011 66.5558C218.299 66.2818 218.689 66.1448 219.184 66.1448ZM224.141 66.1448C224.829 66.1448 225.38 66.3653 225.795 66.8064C226.216 67.2408 226.426 67.8589 226.426 68.6609V69.0117H222.427C222.453 69.5597 222.627 69.9974 222.948 70.3249C223.275 70.6457 223.683 70.806 224.171 70.806C224.565 70.806 224.889 70.7292 225.143 70.5755C225.404 70.4151 225.594 70.1779 225.715 69.8638H226.366C226.212 70.3516 225.945 70.7292 225.564 70.9965C225.19 71.2638 224.722 71.3975 224.161 71.3975C223.466 71.3975 222.894 71.1569 222.447 70.6757C222.006 70.1946 221.785 69.563 221.785 68.7812C221.785 68.0126 221.999 67.3811 222.427 66.8866C222.861 66.3921 223.432 66.1448 224.141 66.1448ZM224.141 66.7362C223.66 66.7362 223.262 66.8966 222.948 67.2174C222.64 67.5315 222.467 67.9391 222.427 68.4403H225.785C225.785 67.9124 225.634 67.4981 225.334 67.1973C225.04 66.8899 224.642 66.7362 224.141 66.7362ZM229.091 66.1448C229.565 66.1448 229.946 66.2818 230.233 66.5558C230.528 66.8231 230.678 67.1907 230.685 67.6584H230.033C230.026 67.351 229.943 67.1205 229.782 66.9668C229.622 66.8131 229.385 66.7362 229.071 66.7362C228.77 66.7362 228.539 66.8097 228.379 66.9568C228.219 67.0971 228.138 67.2876 228.138 67.5281C228.138 67.7754 228.212 67.9592 228.359 68.0795C228.506 68.1931 228.793 68.3067 229.221 68.4203C229.802 68.5807 230.22 68.7745 230.474 69.0017C230.728 69.2222 230.855 69.5263 230.855 69.9139C230.855 70.3683 230.695 70.7292 230.374 70.9965C230.06 71.2638 229.652 71.3975 229.151 71.3975C228.596 71.3975 228.158 71.2538 227.838 70.9664C227.524 70.6724 227.363 70.2881 227.357 69.8136H228.008C228.015 70.1277 228.118 70.3717 228.319 70.5454C228.519 70.7192 228.803 70.806 229.171 70.806C229.512 70.806 229.769 70.7258 229.943 70.5655C230.123 70.4051 230.213 70.1979 230.213 69.944C230.213 69.6967 230.127 69.5029 229.953 69.3626C229.779 69.2222 229.465 69.0952 229.011 68.9816C228.489 68.848 228.105 68.6776 227.858 68.4704C227.617 68.2566 227.497 67.9525 227.497 67.5582C227.497 67.1572 227.637 66.8231 227.918 66.5558C228.205 66.2818 228.596 66.1448 229.091 66.1448ZM236.453 66.2049V66.8264C236.245 66.8264 236.055 66.8599 235.881 66.9267C235.714 66.9935 235.564 67.0971 235.43 67.2374C235.27 67.3911 235.149 67.5783 235.069 67.7988C234.989 68.0193 234.949 68.2733 234.949 68.5606V71.2872H234.317V66.2551H234.909L234.929 67.1673C235.029 66.9 235.206 66.6727 235.46 66.4856C235.721 66.2985 236.052 66.2049 236.453 66.2049ZM239.412 66.1448C240.1 66.1448 240.652 66.3653 241.066 66.8064C241.487 67.2408 241.697 67.8589 241.697 68.6609V69.0117H237.698C237.725 69.5597 237.898 69.9974 238.219 70.3249C238.547 70.6457 238.954 70.806 239.442 70.806C239.836 70.806 240.16 70.7292 240.414 70.5755C240.675 70.4151 240.865 70.1779 240.986 69.8638H241.637C241.484 70.3516 241.216 70.7292 240.835 70.9965C240.461 71.2638 239.993 71.3975 239.432 71.3975C238.737 71.3975 238.166 71.1569 237.718 70.6757C237.277 70.1946 237.056 69.563 237.056 68.7812C237.056 68.0126 237.27 67.3811 237.698 66.8866C238.132 66.3921 238.704 66.1448 239.412 66.1448ZM239.412 66.7362C238.931 66.7362 238.533 66.8966 238.219 67.2174C237.912 67.5315 237.738 67.9391 237.698 68.4403H241.056C241.056 67.9124 240.906 67.4981 240.605 67.1973C240.311 66.8899 239.913 66.7362 239.412 66.7362ZM244.362 66.1448C244.836 66.1448 245.217 66.2818 245.505 66.5558C245.799 66.8231 245.949 67.1907 245.956 67.6584H245.304C245.298 67.351 245.214 67.1205 245.054 66.9668C244.893 66.8131 244.656 66.7362 244.342 66.7362C244.041 66.7362 243.811 66.8097 243.65 66.9568C243.49 67.0971 243.41 67.2876 243.41 67.5281C243.41 67.7754 243.483 67.9592 243.63 68.0795C243.777 68.1931 244.065 68.3067 244.492 68.4203C245.074 68.5807 245.491 68.7745 245.745 69.0017C245.999 69.2222 246.126 69.5263 246.126 69.9139C246.126 70.3683 245.966 70.7292 245.645 70.9965C245.331 71.2638 244.923 71.3975 244.422 71.3975C243.867 71.3975 243.43 71.2538 243.109 70.9664C242.795 70.6724 242.634 70.2881 242.628 69.8136H243.279C243.286 70.1277 243.39 70.3717 243.59 70.5454C243.791 70.7192 244.075 70.806 244.442 70.806C244.783 70.806 245.04 70.7258 245.214 70.5655C245.394 70.4051 245.485 70.1979 245.485 69.944C245.485 69.6967 245.398 69.5029 245.224 69.3626C245.05 69.2222 244.736 69.0952 244.282 68.9816C243.76 68.848 243.376 68.6776 243.129 68.4704C242.888 68.2566 242.768 67.9525 242.768 67.5582C242.768 67.1572 242.908 66.8231 243.189 66.5558C243.476 66.2818 243.867 66.1448 244.362 66.1448ZM251.273 66.8866C251.734 67.3811 251.965 68.0093 251.965 68.7711C251.965 69.533 251.734 70.1612 251.273 70.6557C250.812 71.1502 250.211 71.3975 249.469 71.3975C248.727 71.3975 248.126 71.1502 247.665 70.6557C247.197 70.1612 246.963 69.533 246.963 68.7711C246.963 68.0093 247.197 67.3811 247.665 66.8866C248.126 66.3921 248.727 66.1448 249.469 66.1448C250.211 66.1448 250.812 66.3921 251.273 66.8866ZM249.479 66.7362C248.918 66.7362 248.463 66.93 248.116 67.3176C247.775 67.6985 247.605 68.183 247.605 68.7711C247.605 69.3592 247.775 69.8471 248.116 70.2347C248.463 70.6156 248.918 70.806 249.479 70.806C250.034 70.806 250.478 70.6156 250.812 70.2347C251.153 69.8471 251.323 69.3592 251.323 68.7711C251.323 68.183 251.153 67.6985 250.812 67.3176C250.478 66.93 250.034 66.7362 249.479 66.7362ZM253.812 63.9696V71.2872H253.18V63.9696H253.812ZM259.42 66.2551L257.435 71.2872H256.824L254.839 66.2551H255.511L257.024 70.1545L257.125 70.5053L257.235 70.1545L258.738 66.2551H259.42ZM262.329 66.1448C263.017 66.1448 263.568 66.3653 263.983 66.8064C264.404 67.2408 264.614 67.8589 264.614 68.6609V69.0117H260.614C260.641 69.5597 260.815 69.9974 261.136 70.3249C261.463 70.6457 261.871 70.806 262.359 70.806C262.753 70.806 263.077 70.7292 263.331 70.5755C263.592 70.4151 263.782 70.1779 263.902 69.8638H264.554C264.4 70.3516 264.133 70.7292 263.752 70.9965C263.378 71.2638 262.91 71.3975 262.349 71.3975C261.654 71.3975 261.082 71.1569 260.634 70.6757C260.193 70.1946 259.973 69.563 259.973 68.7812C259.973 68.0126 260.187 67.3811 260.614 66.8866C261.049 66.3921 261.62 66.1448 262.329 66.1448ZM262.329 66.7362C261.847 66.7362 261.45 66.8966 261.136 67.2174C260.828 67.5315 260.655 67.9391 260.614 68.4403H263.973C263.973 67.9124 263.822 67.4981 263.521 67.1973C263.227 66.8899 262.83 66.7362 262.329 66.7362ZM270.236 63.9696V71.2872H269.654L269.634 70.4351C269.487 70.6891 269.257 70.913 268.943 71.1068C268.628 71.3006 268.258 71.3975 267.83 71.3975C267.115 71.3975 266.543 71.1502 266.116 70.6557C265.695 70.1612 265.484 69.533 265.484 68.7711C265.484 68.0093 265.698 67.3811 266.126 66.8866C266.553 66.3921 267.125 66.1448 267.84 66.1448C268.261 66.1448 268.628 66.2384 268.943 66.4255C269.257 66.6126 269.481 66.8365 269.614 67.0971V63.9696H270.236ZM267.9 66.7462C267.372 66.7462 266.944 66.9367 266.617 67.3176C266.289 67.6985 266.126 68.183 266.126 68.7711C266.126 69.3659 266.286 69.8537 266.607 70.2347C266.928 70.6156 267.355 70.806 267.89 70.806C268.364 70.806 268.769 70.6356 269.103 70.2948C269.444 69.9473 269.614 69.4862 269.614 68.9115V68.701C269.614 68.1062 269.444 67.6317 269.103 67.2775C268.769 66.9233 268.368 66.7462 267.9 66.7462ZM208.834 76.9395L209.295 77.2803C208.82 77.8751 208.476 78.4632 208.262 79.0446C208.049 79.626 207.942 80.3009 207.942 81.0694C207.942 81.838 208.049 82.5129 208.262 83.0943C208.476 83.6757 208.82 84.2638 209.295 84.8586L208.834 85.1994C208.333 84.5645 207.955 83.9196 207.701 83.2647C207.447 82.6098 207.32 81.8781 207.32 81.0694C207.32 80.2608 207.447 79.5291 207.701 78.8741C207.955 78.2192 208.333 77.5743 208.834 76.9395ZM211.818 79.1448C212.373 79.1448 212.797 79.3018 213.091 79.6159C213.392 79.9233 213.542 80.3611 213.542 80.9291V84.2872H212.941L212.921 83.5554C212.787 83.796 212.58 83.9965 212.299 84.1569C212.019 84.3173 211.694 84.3975 211.327 84.3975C210.893 84.3975 210.545 84.2738 210.284 84.0266C210.03 83.7793 209.904 83.4552 209.904 83.0542C209.904 82.6666 210.017 82.3559 210.244 82.122C210.472 81.8814 210.812 81.7143 211.267 81.6208L212.901 81.2799V80.9491C212.901 80.5415 212.811 80.2374 212.63 80.0369C212.45 79.8365 212.179 79.7362 211.818 79.7362C211.484 79.7362 211.21 79.8298 210.996 80.0169C210.782 80.1973 210.675 80.4646 210.675 80.8188H210.044C210.051 80.3377 210.214 79.94 210.535 79.626C210.862 79.3052 211.29 79.1448 211.818 79.1448ZM212.901 81.8513L211.387 82.1821C211.113 82.249 210.903 82.3459 210.756 82.4728C210.615 82.5998 210.545 82.7903 210.545 83.0442C210.545 83.2848 210.619 83.4719 210.766 83.6056C210.919 83.7392 211.133 83.806 211.407 83.806C211.648 83.806 211.865 83.7626 212.059 83.6757C212.253 83.5822 212.423 83.4452 212.57 83.2647C212.684 83.1177 212.767 82.964 212.821 82.8036C212.874 82.6366 212.901 82.4595 212.901 82.2723V81.8513ZM217.115 79.1448C217.643 79.1448 218.047 79.3185 218.328 79.6661C218.615 80.0136 218.759 80.4713 218.759 81.0394V84.2872H218.128V81.0995C218.128 80.6651 218.027 80.3343 217.827 80.1071C217.633 79.8732 217.362 79.7563 217.015 79.7563C216.627 79.7563 216.31 79.9133 216.063 80.2274C215.815 80.5415 215.692 80.9625 215.692 81.4905V84.2872H215.06V79.2551H215.642L215.672 80.0169C215.772 79.783 215.952 79.5792 216.213 79.4054C216.474 79.2317 216.774 79.1448 217.115 79.1448ZM224.608 76.9696V84.2872H224.027L224.007 83.4351C223.86 83.6891 223.629 83.913 223.315 84.1068C223.001 84.3006 222.63 84.3975 222.202 84.3975C221.487 84.3975 220.916 84.1502 220.488 83.6557C220.067 83.1612 219.857 82.533 219.857 81.7711C219.857 81.0093 220.07 80.3811 220.498 79.8866C220.926 79.3921 221.497 79.1448 222.212 79.1448C222.633 79.1448 223.001 79.2384 223.315 79.4255C223.629 79.6126 223.853 79.8365 223.987 80.0971V76.9696H224.608ZM222.272 79.7462C221.744 79.7462 221.317 79.9367 220.989 80.3176C220.662 80.6985 220.498 81.183 220.498 81.7711C220.498 82.3659 220.659 82.8537 220.979 83.2347C221.3 83.6156 221.728 83.806 222.262 83.806C222.737 83.806 223.141 83.6356 223.475 83.2948C223.816 82.9473 223.987 82.4862 223.987 81.9115V81.701C223.987 81.1062 223.816 80.6317 223.475 80.2775C223.141 79.9233 222.74 79.7462 222.272 79.7462ZM230.289 79.1448C230.837 79.1448 231.305 79.2818 231.693 79.5558C232.087 79.8231 232.351 80.2074 232.485 80.7086H231.833C231.726 80.4012 231.532 80.1639 231.252 79.9969C230.978 79.8231 230.66 79.7362 230.299 79.7362C229.791 79.7362 229.37 79.93 229.036 80.3176C228.702 80.7052 228.535 81.1931 228.535 81.7812C228.535 82.3559 228.702 82.837 229.036 83.2246C229.377 83.6122 229.801 83.806 230.309 83.806C230.67 83.806 230.988 83.7192 231.262 83.5454C231.536 83.3717 231.726 83.1344 231.833 82.8337H232.485C232.344 83.3349 232.077 83.7225 231.683 83.9965C231.295 84.2638 230.831 84.3975 230.289 84.3975C229.594 84.3975 229.02 84.1502 228.565 83.6557C228.117 83.1545 227.894 82.5296 227.894 81.7812C227.894 81.0193 228.117 80.3911 228.565 79.8966C229.02 79.3954 229.594 79.1448 230.289 79.1448ZM237.588 79.8866C238.049 80.3811 238.28 81.0093 238.28 81.7711C238.28 82.533 238.049 83.1612 237.588 83.6557C237.127 84.1502 236.525 84.3975 235.784 84.3975C235.042 84.3975 234.44 84.1502 233.979 83.6557C233.512 83.1612 233.278 82.533 233.278 81.7711C233.278 81.0093 233.512 80.3811 233.979 79.8866C234.44 79.3921 235.042 79.1448 235.784 79.1448C236.525 79.1448 237.127 79.3921 237.588 79.8866ZM235.794 79.7362C235.232 79.7362 234.778 79.93 234.43 80.3176C234.09 80.6985 233.919 81.183 233.919 81.7711C233.919 82.3592 234.09 82.8471 234.43 83.2347C234.778 83.6156 235.232 83.806 235.794 83.806C236.348 83.806 236.793 83.6156 237.127 83.2347C237.468 82.8471 237.638 82.3592 237.638 81.7711C237.638 81.183 237.468 80.6985 237.127 80.3176C236.793 79.93 236.348 79.7362 235.794 79.7362ZM243.034 79.2551V84.2872H242.442L242.422 83.5354C242.322 83.776 242.145 83.9798 241.891 84.1469C241.637 84.3139 241.339 84.3975 240.999 84.3975C240.471 84.3975 240.066 84.2271 239.786 83.8862C239.512 83.5387 239.375 83.0776 239.375 82.5029V79.2551H240.006V82.4428C240.006 82.8838 240.103 83.2213 240.297 83.4552C240.491 83.6824 240.761 83.796 241.109 83.796C241.49 83.796 241.801 83.6423 242.041 83.3349C242.282 83.0275 242.402 82.6165 242.402 82.1019V79.2551H243.034ZM246.688 79.1448C247.216 79.1448 247.621 79.3185 247.901 79.6661C248.189 80.0136 248.332 80.4713 248.332 81.0394V84.2872H247.701V81.0995C247.701 80.6651 247.601 80.3343 247.4 80.1071C247.206 79.8732 246.936 79.7563 246.588 79.7563C246.201 79.7563 245.883 79.9133 245.636 80.2274C245.389 80.5415 245.265 80.9625 245.265 81.4905V84.2872H244.633V79.2551H245.215L245.245 80.0169C245.345 79.783 245.526 79.5792 245.786 79.4054C246.047 79.2317 246.348 79.1448 246.688 79.1448ZM250.763 77.972L250.753 79.2551H252.116V79.8465H250.743L250.723 82.9039C250.723 83.2113 250.773 83.4351 250.873 83.5755C250.98 83.7091 251.181 83.776 251.475 83.776C251.582 83.776 251.689 83.7693 251.796 83.7559C251.902 83.7359 252.009 83.7091 252.116 83.6757V84.2471C252.029 84.2872 251.926 84.3139 251.806 84.3273C251.692 84.3473 251.558 84.3574 251.405 84.3574C250.964 84.3574 250.633 84.2504 250.412 84.0366C250.198 83.8161 250.095 83.4652 250.101 82.9841L250.122 79.8465H249.119V79.2551H250.122L250.132 77.972H250.763ZM253.89 79.2551V84.2872H253.259V79.2551H253.89ZM253.579 77.17C253.713 77.17 253.827 77.2202 253.92 77.3204C254.021 77.414 254.071 77.5276 254.071 77.6612C254.071 77.7949 254.021 77.9085 253.92 78.002C253.827 78.0956 253.713 78.1424 253.579 78.1424C253.439 78.1424 253.322 78.0956 253.229 78.002C253.135 77.9085 253.088 77.7949 253.088 77.6612C253.088 77.5276 253.135 77.414 253.229 77.3204C253.322 77.2202 253.439 77.17 253.579 77.17ZM257.584 79.1448C258.112 79.1448 258.516 79.3185 258.797 79.6661C259.084 80.0136 259.228 80.4713 259.228 81.0394V84.2872H258.596V81.0995C258.596 80.6651 258.496 80.3343 258.296 80.1071C258.102 79.8732 257.831 79.7563 257.484 79.7563C257.096 79.7563 256.779 79.9133 256.531 80.2274C256.284 80.5415 256.16 80.9625 256.16 81.4905V84.2872H255.529V79.2551H256.11L256.14 80.0169C256.241 79.783 256.421 79.5792 256.682 79.4054C256.942 79.2317 257.243 79.1448 257.584 79.1448ZM264.936 79.2551V79.8264H263.964C264.084 79.9801 264.171 80.1506 264.225 80.3377C264.285 80.5181 264.315 80.7186 264.315 80.9391C264.315 81.447 264.144 81.8714 263.804 82.2122C263.463 82.553 263.008 82.7234 262.44 82.7234C262.213 82.7234 261.999 82.6967 261.799 82.6432C261.605 82.5831 261.425 82.4962 261.258 82.3826C261.164 82.4628 261.09 82.553 261.037 82.6533C260.99 82.7535 260.967 82.8638 260.967 82.9841C260.967 83.1779 261.034 83.3249 261.167 83.4251C261.308 83.5254 261.488 83.5755 261.709 83.5755H263.102C263.623 83.5755 264.011 83.6991 264.265 83.9464C264.525 84.187 264.656 84.5144 264.656 84.9287C264.656 85.4366 264.475 85.8343 264.114 86.1216C263.76 86.409 263.266 86.5527 262.631 86.5527C261.936 86.5527 261.401 86.419 261.027 86.1517C260.659 85.8911 260.476 85.5135 260.476 85.019C260.476 84.7851 260.522 84.5846 260.616 84.4175C260.716 84.2504 260.86 84.1201 261.047 84.0266C260.847 83.9464 260.679 83.8194 260.546 83.6457C260.412 83.4652 260.345 83.2514 260.345 83.0041C260.345 82.7969 260.389 82.6098 260.476 82.4428C260.569 82.2757 260.703 82.1287 260.877 82.0017C260.77 81.8547 260.686 81.6943 260.626 81.5205C260.573 81.3401 260.546 81.1463 260.546 80.9391C260.546 80.4112 260.716 79.9801 261.057 79.646C261.398 79.3119 261.859 79.1448 262.44 79.1448C262.567 79.1448 262.691 79.1548 262.811 79.1749C262.932 79.1882 263.045 79.215 263.152 79.2551H264.936ZM261.177 80.9391C261.177 81.2933 261.291 81.584 261.518 81.8112C261.745 82.0384 262.049 82.1521 262.43 82.1521C262.818 82.1521 263.125 82.0384 263.353 81.8112C263.58 81.584 263.693 81.2933 263.693 80.9391C263.693 80.5716 263.58 80.2775 263.353 80.057C263.125 79.8298 262.818 79.7162 262.43 79.7162C262.043 79.7162 261.735 79.8298 261.508 80.057C261.288 80.2775 261.177 80.5716 261.177 80.9391ZM263.022 84.1469H261.949C261.715 84.1535 261.515 84.2304 261.348 84.3774C261.187 84.5244 261.107 84.7316 261.107 84.9989C261.107 85.3264 261.234 85.5703 261.488 85.7307C261.742 85.8978 262.123 85.9813 262.631 85.9813C263.099 85.9813 263.446 85.8944 263.673 85.7207C263.907 85.5469 264.024 85.2863 264.024 84.9388C264.024 84.6848 263.934 84.4877 263.754 84.3473C263.58 84.2137 263.336 84.1469 263.022 84.1469ZM265.45 76.9395C265.951 77.5743 266.329 78.2192 266.583 78.8741C266.837 79.5291 266.964 80.2608 266.964 81.0694C266.964 81.8781 266.837 82.6098 266.583 83.2647C266.329 83.9196 265.951 84.5645 265.45 85.1994L264.989 84.8586C265.464 84.2638 265.808 83.6757 266.022 83.0943C266.235 82.5129 266.342 81.838 266.342 81.0694C266.342 80.3009 266.235 79.626 266.022 79.0446C265.808 78.4632 265.464 77.8751 264.989 77.2803L265.45 76.9395Z" fill="#000039"/>
    <path d="M205.865 219.515C206.393 219.515 206.797 219.689 207.078 220.036C207.358 220.377 207.499 220.835 207.499 221.41V224.657H206.867V221.47C206.867 221.035 206.77 220.704 206.576 220.477C206.383 220.243 206.112 220.126 205.764 220.126C205.39 220.126 205.079 220.277 204.832 220.578C204.585 220.872 204.458 221.273 204.451 221.78V224.657H203.83V221.47C203.83 221.035 203.73 220.704 203.529 220.477C203.335 220.243 203.065 220.126 202.717 220.126C202.336 220.126 202.022 220.283 201.775 220.598C201.534 220.905 201.414 221.326 201.414 221.861V224.657H200.782V219.625H201.364L201.394 220.387C201.494 220.153 201.671 219.949 201.925 219.776C202.186 219.602 202.483 219.515 202.817 219.515C203.192 219.515 203.502 219.602 203.75 219.776C203.997 219.943 204.184 220.197 204.311 220.537C204.445 220.257 204.645 220.016 204.912 219.816C205.18 219.615 205.497 219.515 205.865 219.515ZM210.619 219.515C211.173 219.515 211.598 219.672 211.892 219.986C212.193 220.293 212.343 220.731 212.343 221.299V224.657H211.741L211.721 223.926C211.588 224.166 211.381 224.367 211.1 224.527C210.819 224.687 210.495 224.768 210.128 224.768C209.693 224.768 209.346 224.644 209.085 224.397C208.831 224.149 208.704 223.825 208.704 223.424C208.704 223.037 208.818 222.726 209.045 222.492C209.272 222.252 209.613 222.084 210.067 221.991L211.701 221.65V221.319C211.701 220.912 211.611 220.608 211.431 220.407C211.25 220.207 210.98 220.106 210.619 220.106C210.285 220.106 210.011 220.2 209.797 220.387C209.583 220.567 209.476 220.835 209.476 221.189H208.845C208.851 220.708 209.015 220.31 209.336 219.996C209.663 219.675 210.091 219.515 210.619 219.515ZM211.701 222.221L210.188 222.552C209.914 222.619 209.703 222.716 209.556 222.843C209.416 222.97 209.346 223.16 209.346 223.414C209.346 223.655 209.419 223.842 209.566 223.976C209.72 224.109 209.934 224.176 210.208 224.176C210.448 224.176 210.666 224.133 210.859 224.046C211.053 223.952 211.224 223.815 211.371 223.635C211.484 223.488 211.568 223.334 211.621 223.174C211.675 223.007 211.701 222.83 211.701 222.642V222.221ZM216.076 219.575V220.197C215.869 220.197 215.679 220.23 215.505 220.297C215.338 220.364 215.187 220.467 215.054 220.608C214.893 220.761 214.773 220.948 214.693 221.169C214.613 221.389 214.573 221.643 214.573 221.931V224.657H213.941V219.625H214.532L214.552 220.537C214.653 220.27 214.83 220.043 215.084 219.856C215.344 219.669 215.675 219.575 216.076 219.575ZM217.823 217.34V222.151L219.928 219.625H220.72L219.005 221.69L220.98 224.657H220.248L218.564 222.181L217.823 223.074V224.657H217.191V217.34H217.823ZM223.822 219.515C224.511 219.515 225.062 219.735 225.476 220.177C225.897 220.611 226.108 221.229 226.108 222.031V222.382H222.108C222.135 222.93 222.309 223.368 222.63 223.695C222.957 224.016 223.365 224.176 223.853 224.176C224.247 224.176 224.571 224.099 224.825 223.946C225.085 223.785 225.276 223.548 225.396 223.234H226.048C225.894 223.722 225.627 224.099 225.246 224.367C224.872 224.634 224.404 224.768 223.842 224.768C223.147 224.768 222.576 224.527 222.128 224.046C221.687 223.565 221.467 222.933 221.467 222.151C221.467 221.383 221.681 220.751 222.108 220.257C222.543 219.762 223.114 219.515 223.822 219.515ZM223.822 220.106C223.341 220.106 222.944 220.267 222.63 220.588C222.322 220.902 222.148 221.309 222.108 221.81H225.466C225.466 221.283 225.316 220.868 225.015 220.567C224.721 220.26 224.324 220.106 223.822 220.106ZM228.311 218.342L228.301 219.625H229.665V220.217H228.291L228.271 223.274C228.271 223.581 228.321 223.805 228.422 223.946C228.528 224.079 228.729 224.146 229.023 224.146C229.13 224.146 229.237 224.139 229.344 224.126C229.451 224.106 229.558 224.079 229.665 224.046V224.617C229.578 224.657 229.474 224.684 229.354 224.697C229.24 224.717 229.107 224.728 228.953 224.728C228.512 224.728 228.181 224.621 227.96 224.407C227.747 224.186 227.643 223.835 227.65 223.354L227.67 220.217H226.667V219.625H227.67L227.68 218.342H228.311ZM236.851 219.625L234.866 224.657H234.255L232.27 219.625H232.941L234.455 223.525L234.555 223.875L234.666 223.525L236.169 219.625H236.851ZM239.429 219.515C239.983 219.515 240.408 219.672 240.702 219.986C241.002 220.293 241.153 220.731 241.153 221.299V224.657H240.551L240.531 223.926C240.398 224.166 240.19 224.367 239.91 224.527C239.629 224.687 239.305 224.768 238.937 224.768C238.503 224.768 238.155 224.644 237.895 224.397C237.641 224.149 237.514 223.825 237.514 223.424C237.514 223.037 237.627 222.726 237.855 222.492C238.082 222.252 238.423 222.084 238.877 221.991L240.511 221.65V221.319C240.511 220.912 240.421 220.608 240.24 220.407C240.06 220.207 239.789 220.106 239.429 220.106C239.094 220.106 238.82 220.2 238.607 220.387C238.393 220.567 238.286 220.835 238.286 221.189H237.654C237.661 220.708 237.825 220.31 238.145 219.996C238.473 219.675 238.901 219.515 239.429 219.515ZM240.511 222.221L238.997 222.552C238.723 222.619 238.513 222.716 238.366 222.843C238.226 222.97 238.155 223.16 238.155 223.414C238.155 223.655 238.229 223.842 238.376 223.976C238.53 224.109 238.744 224.176 239.018 224.176C239.258 224.176 239.475 224.133 239.669 224.046C239.863 223.952 240.033 223.815 240.18 223.635C240.294 223.488 240.377 223.334 240.431 223.174C240.484 223.007 240.511 222.83 240.511 222.642V222.221ZM243.342 217.34V224.657H242.711V217.34H243.342ZM248.559 219.625V224.657H247.968L247.948 223.906C247.848 224.146 247.671 224.35 247.417 224.517C247.163 224.684 246.865 224.768 246.525 224.768C245.997 224.768 245.592 224.597 245.312 224.256C245.038 223.909 244.901 223.448 244.901 222.873V219.625H245.532V222.813C245.532 223.254 245.629 223.591 245.823 223.825C246.017 224.053 246.287 224.166 246.635 224.166C247.016 224.166 247.326 224.012 247.567 223.705C247.808 223.398 247.928 222.987 247.928 222.472V219.625H248.559ZM252.084 219.515C252.772 219.515 253.324 219.735 253.738 220.177C254.159 220.611 254.369 221.229 254.369 222.031V222.382H250.37C250.397 222.93 250.57 223.368 250.891 223.695C251.219 224.016 251.626 224.176 252.114 224.176C252.508 224.176 252.832 224.099 253.086 223.946C253.347 223.785 253.537 223.548 253.658 223.234H254.309C254.156 223.722 253.888 224.099 253.507 224.367C253.133 224.634 252.665 224.768 252.104 224.768C251.409 224.768 250.838 224.527 250.39 224.046C249.949 223.565 249.728 222.933 249.728 222.151C249.728 221.383 249.942 220.751 250.37 220.257C250.804 219.762 251.376 219.515 252.084 219.515ZM252.084 220.106C251.603 220.106 251.205 220.267 250.891 220.588C250.584 220.902 250.41 221.309 250.37 221.81H253.728C253.728 221.283 253.578 220.868 253.277 220.567C252.983 220.26 252.585 220.106 252.084 220.106ZM261.664 220.257C262.126 220.751 262.356 221.379 262.356 222.141C262.356 222.903 262.126 223.531 261.664 224.026C261.203 224.52 260.602 224.768 259.86 224.768C259.118 224.768 258.517 224.52 258.056 224.026C257.588 223.531 257.354 222.903 257.354 222.141C257.354 221.379 257.588 220.751 258.056 220.257C258.517 219.762 259.118 219.515 259.86 219.515C260.602 219.515 261.203 219.762 261.664 220.257ZM259.87 220.106C259.309 220.106 258.854 220.3 258.507 220.688C258.166 221.069 257.996 221.553 257.996 222.141C257.996 222.729 258.166 223.217 258.507 223.605C258.854 223.986 259.309 224.176 259.87 224.176C260.425 224.176 260.869 223.986 261.203 223.605C261.544 223.217 261.715 222.729 261.715 222.141C261.715 221.553 261.544 221.069 261.203 220.688C260.869 220.3 260.425 220.106 259.87 220.106ZM265.175 217.27C265.316 217.27 265.443 217.28 265.556 217.3C265.67 217.32 265.77 217.353 265.857 217.4V217.981C265.763 217.934 265.66 217.901 265.546 217.881C265.439 217.861 265.326 217.851 265.205 217.851C264.958 217.851 264.771 217.924 264.644 218.071C264.524 218.218 264.464 218.439 264.464 218.733V219.625H265.767V220.207H264.464V224.657H263.832V220.207H262.86V219.625H263.832V218.723C263.832 218.269 263.949 217.914 264.183 217.66C264.424 217.4 264.754 217.27 265.175 217.27ZM271.053 219.575V220.197C270.845 220.197 270.655 220.23 270.481 220.297C270.314 220.364 270.164 220.467 270.03 220.608C269.87 220.761 269.749 220.948 269.669 221.169C269.589 221.389 269.549 221.643 269.549 221.931V224.657H268.917V219.625H269.509L269.529 220.537C269.629 220.27 269.806 220.043 270.06 219.856C270.321 219.669 270.652 219.575 271.053 219.575ZM274.012 219.515C274.7 219.515 275.252 219.735 275.666 220.177C276.087 220.611 276.297 221.229 276.297 222.031V222.382H272.298C272.324 222.93 272.498 223.368 272.819 223.695C273.146 224.016 273.554 224.176 274.042 224.176C274.436 224.176 274.76 224.099 275.014 223.946C275.275 223.785 275.465 223.548 275.586 223.234H276.237C276.084 223.722 275.816 224.099 275.435 224.367C275.061 224.634 274.593 224.768 274.032 224.768C273.337 224.768 272.766 224.527 272.318 224.046C271.877 223.565 271.656 222.933 271.656 222.151C271.656 221.383 271.87 220.751 272.298 220.257C272.732 219.762 273.303 219.515 274.012 219.515ZM274.012 220.106C273.531 220.106 273.133 220.267 272.819 220.588C272.512 220.902 272.338 221.309 272.298 221.81H275.656C275.656 221.283 275.505 220.868 275.205 220.567C274.911 220.26 274.513 220.106 274.012 220.106ZM279.192 219.515C279.747 219.515 280.171 219.672 280.465 219.986C280.766 220.293 280.917 220.731 280.917 221.299V224.657H280.315L280.295 223.926C280.161 224.166 279.954 224.367 279.674 224.527C279.393 224.687 279.069 224.768 278.701 224.768C278.267 224.768 277.919 224.644 277.659 224.397C277.405 224.149 277.278 223.825 277.278 223.424C277.278 223.037 277.391 222.726 277.619 222.492C277.846 222.252 278.187 222.084 278.641 221.991L280.275 221.65V221.319C280.275 220.912 280.185 220.608 280.004 220.407C279.824 220.207 279.553 220.106 279.192 220.106C278.858 220.106 278.584 220.2 278.37 220.387C278.157 220.567 278.05 220.835 278.05 221.189H277.418C277.425 220.708 277.589 220.31 277.909 219.996C278.237 219.675 278.664 219.515 279.192 219.515ZM280.275 222.221L278.761 222.552C278.487 222.619 278.277 222.716 278.13 222.843C277.989 222.97 277.919 223.16 277.919 223.414C277.919 223.655 277.993 223.842 278.14 223.976C278.294 224.109 278.507 224.176 278.781 224.176C279.022 224.176 279.239 224.133 279.433 224.046C279.627 223.952 279.797 223.815 279.944 223.635C280.058 223.488 280.141 223.334 280.195 223.174C280.248 223.007 280.275 222.83 280.275 222.642V222.221ZM283.106 217.34V224.657H282.475V217.34H283.106ZM202.707 232.515C203.395 232.515 203.947 232.735 204.361 233.177C204.782 233.611 204.993 234.229 204.993 235.031V235.382H200.993C201.02 235.93 201.193 236.368 201.514 236.695C201.842 237.016 202.249 237.176 202.737 237.176C203.131 237.176 203.456 237.099 203.709 236.946C203.97 236.785 204.161 236.548 204.281 236.234H204.932C204.779 236.722 204.511 237.099 204.13 237.367C203.756 237.634 203.288 237.768 202.727 237.768C202.032 237.768 201.461 237.527 201.013 237.046C200.572 236.565 200.351 235.933 200.351 235.151C200.351 234.383 200.565 233.751 200.993 233.257C201.427 232.762 201.999 232.515 202.707 232.515ZM202.707 233.106C202.226 233.106 201.828 233.267 201.514 233.588C201.207 233.902 201.033 234.309 200.993 234.81H204.351C204.351 234.283 204.201 233.868 203.9 233.567C203.606 233.26 203.208 233.106 202.707 233.106ZM207.657 232.515C208.132 232.515 208.512 232.652 208.8 232.926C209.094 233.193 209.244 233.561 209.251 234.029H208.599C208.593 233.721 208.509 233.491 208.349 233.337C208.188 233.183 207.951 233.106 207.637 233.106C207.336 233.106 207.106 233.18 206.945 233.327C206.785 233.467 206.705 233.658 206.705 233.898C206.705 234.146 206.778 234.329 206.925 234.45C207.072 234.563 207.36 234.677 207.787 234.79C208.369 234.951 208.786 235.145 209.04 235.372C209.294 235.592 209.421 235.896 209.421 236.284C209.421 236.738 209.261 237.099 208.94 237.367C208.626 237.634 208.218 237.768 207.717 237.768C207.163 237.768 206.725 237.624 206.404 237.337C206.09 237.043 205.93 236.658 205.923 236.184H206.574C206.581 236.498 206.685 236.742 206.885 236.916C207.086 237.089 207.37 237.176 207.737 237.176C208.078 237.176 208.335 237.096 208.509 236.936C208.69 236.775 208.78 236.568 208.78 236.314C208.78 236.067 208.693 235.873 208.519 235.733C208.345 235.592 208.031 235.465 207.577 235.352C207.056 235.218 206.671 235.048 206.424 234.841C206.183 234.627 206.063 234.323 206.063 233.928C206.063 233.527 206.204 233.193 206.484 232.926C206.772 232.652 207.163 232.515 207.657 232.515ZM211.591 231.342L211.581 232.625H212.945V233.217H211.571L211.551 236.274C211.551 236.581 211.601 236.805 211.702 236.946C211.808 237.079 212.009 237.146 212.303 237.146C212.41 237.146 212.517 237.139 212.624 237.126C212.731 237.106 212.838 237.079 212.945 237.046V237.617C212.858 237.657 212.754 237.684 212.634 237.697C212.52 237.717 212.387 237.728 212.233 237.728C211.792 237.728 211.461 237.621 211.24 237.407C211.027 237.186 210.923 236.835 210.93 236.354L210.95 233.217H209.947V232.625H210.95L210.96 231.342H211.591ZM215.641 232.515C216.195 232.515 216.62 232.672 216.914 232.986C217.214 233.293 217.365 233.731 217.365 234.299V237.657H216.763L216.743 236.926C216.61 237.166 216.403 237.367 216.122 237.527C215.841 237.687 215.517 237.768 215.149 237.768C214.715 237.768 214.368 237.644 214.107 237.397C213.853 237.149 213.726 236.825 213.726 236.424C213.726 236.037 213.84 235.726 214.067 235.492C214.294 235.252 214.635 235.084 215.089 234.991L216.723 234.65V234.319C216.723 233.912 216.633 233.608 216.453 233.407C216.272 233.207 216.002 233.106 215.641 233.106C215.307 233.106 215.033 233.2 214.819 233.387C214.605 233.567 214.498 233.835 214.498 234.189H213.866C213.873 233.708 214.037 233.31 214.358 232.996C214.685 232.675 215.113 232.515 215.641 232.515ZM216.723 235.221L215.21 235.552C214.936 235.619 214.725 235.716 214.578 235.843C214.438 235.97 214.368 236.16 214.368 236.414C214.368 236.655 214.441 236.842 214.588 236.976C214.742 237.109 214.956 237.176 215.23 237.176C215.47 237.176 215.687 237.133 215.881 237.046C216.075 236.952 216.245 236.815 216.392 236.635C216.506 236.488 216.59 236.334 216.643 236.174C216.697 236.007 216.723 235.83 216.723 235.642V235.221ZM219.785 231.342L219.775 232.625H221.138V233.217H219.765L219.745 236.274C219.745 236.581 219.795 236.805 219.895 236.946C220.002 237.079 220.203 237.146 220.497 237.146C220.604 237.146 220.71 237.139 220.817 237.126C220.924 237.106 221.031 237.079 221.138 237.046V237.617C221.051 237.657 220.948 237.684 220.827 237.697C220.714 237.717 220.58 237.728 220.426 237.728C219.985 237.728 219.655 237.621 219.434 237.407C219.22 237.186 219.117 236.835 219.123 236.354L219.143 233.217H218.141V232.625H219.143L219.153 231.342H219.785ZM224.165 232.515C224.853 232.515 225.405 232.735 225.819 233.177C226.24 233.611 226.451 234.229 226.451 235.031V235.382H222.451C222.478 235.93 222.651 236.368 222.972 236.695C223.3 237.016 223.707 237.176 224.195 237.176C224.589 237.176 224.914 237.099 225.167 236.946C225.428 236.785 225.619 236.548 225.739 236.234H226.39C226.237 236.722 225.969 237.099 225.588 237.367C225.214 237.634 224.746 237.768 224.185 237.768C223.49 237.768 222.919 237.527 222.471 237.046C222.03 236.565 221.809 235.933 221.809 235.151C221.809 234.383 222.023 233.751 222.451 233.257C222.885 232.762 223.457 232.515 224.165 232.515ZM224.165 233.106C223.684 233.106 223.286 233.267 222.972 233.588C222.665 233.902 222.491 234.309 222.451 234.81H225.809C225.809 234.283 225.659 233.868 225.358 233.567C225.064 233.26 224.666 233.106 224.165 233.106ZM231.831 232.515C232.379 232.515 232.847 232.652 233.234 232.926C233.629 233.193 233.893 233.578 234.026 234.079H233.375C233.268 233.771 233.074 233.534 232.793 233.367C232.519 233.193 232.202 233.106 231.841 233.106C231.333 233.106 230.912 233.3 230.578 233.688C230.244 234.075 230.077 234.563 230.077 235.151C230.077 235.726 230.244 236.207 230.578 236.595C230.919 236.982 231.343 237.176 231.851 237.176C232.212 237.176 232.529 237.089 232.803 236.916C233.077 236.742 233.268 236.505 233.375 236.204H234.026C233.886 236.705 233.619 237.093 233.224 237.367C232.837 237.634 232.372 237.768 231.831 237.768C231.136 237.768 230.561 237.52 230.107 237.026C229.659 236.525 229.435 235.9 229.435 235.151C229.435 234.389 229.659 233.761 230.107 233.267C230.561 232.766 231.136 232.515 231.831 232.515ZM239.13 233.257C239.591 233.751 239.821 234.379 239.821 235.141C239.821 235.903 239.591 236.531 239.13 237.026C238.669 237.52 238.067 237.768 237.325 237.768C236.584 237.768 235.982 237.52 235.521 237.026C235.053 236.531 234.819 235.903 234.819 235.141C234.819 234.379 235.053 233.751 235.521 233.257C235.982 232.762 236.584 232.515 237.325 232.515C238.067 232.515 238.669 232.762 239.13 233.257ZM237.335 233.106C236.774 233.106 236.32 233.3 235.972 233.688C235.631 234.069 235.461 234.553 235.461 235.141C235.461 235.729 235.631 236.217 235.972 236.605C236.32 236.986 236.774 237.176 237.335 237.176C237.89 237.176 238.334 236.986 238.669 236.605C239.009 236.217 239.18 235.729 239.18 235.141C239.18 234.553 239.009 234.069 238.669 233.688C238.334 233.3 237.89 233.106 237.335 233.106ZM241.668 230.34V237.657H241.037V230.34H241.668ZM243.978 230.34V237.657H243.347V230.34H243.978ZM247.211 232.515C247.766 232.515 248.19 232.672 248.484 232.986C248.785 233.293 248.935 233.731 248.935 234.299V237.657H248.334L248.314 236.926C248.18 237.166 247.973 237.367 247.692 237.527C247.411 237.687 247.087 237.768 246.72 237.768C246.285 237.768 245.938 237.644 245.677 237.397C245.423 237.149 245.296 236.825 245.296 236.424C245.296 236.037 245.41 235.726 245.637 235.492C245.864 235.252 246.205 235.084 246.66 234.991L248.294 234.65V234.319C248.294 233.912 248.203 233.608 248.023 233.407C247.842 233.207 247.572 233.106 247.211 233.106C246.877 233.106 246.603 233.2 246.389 233.387C246.175 233.567 246.068 233.835 246.068 234.189H245.437C245.443 233.708 245.607 233.31 245.928 232.996C246.255 232.675 246.683 232.515 247.211 232.515ZM248.294 235.221L246.78 235.552C246.506 235.619 246.295 235.716 246.148 235.843C246.008 235.97 245.938 236.16 245.938 236.414C245.938 236.655 246.011 236.842 246.158 236.976C246.312 237.109 246.526 237.176 246.8 237.176C247.041 237.176 247.258 237.133 247.452 237.046C247.645 236.952 247.816 236.815 247.963 236.635C248.076 236.488 248.16 236.334 248.213 236.174C248.267 236.007 248.294 235.83 248.294 235.642V235.221ZM251.355 231.342L251.345 232.625H252.708V233.217H251.335L251.315 236.274C251.315 236.581 251.365 236.805 251.465 236.946C251.572 237.079 251.773 237.146 252.067 237.146C252.174 237.146 252.281 237.139 252.388 237.126C252.495 237.106 252.602 237.079 252.708 237.046V237.617C252.622 237.657 252.518 237.684 252.398 237.697C252.284 237.717 252.15 237.728 251.997 237.728C251.556 237.728 251.225 237.621 251.004 237.407C250.79 237.186 250.687 236.835 250.694 236.354L250.714 233.217H249.711V232.625H250.714L250.724 231.342H251.355ZM255.735 232.515C256.424 232.515 256.975 232.735 257.389 233.177C257.81 233.611 258.021 234.229 258.021 235.031V235.382H254.021C254.048 235.93 254.222 236.368 254.542 236.695C254.87 237.016 255.278 237.176 255.765 237.176C256.16 237.176 256.484 237.099 256.738 236.946C256.998 236.785 257.189 236.548 257.309 236.234H257.961C257.807 236.722 257.54 237.099 257.159 237.367C256.785 237.634 256.317 237.768 255.755 237.768C255.06 237.768 254.489 237.527 254.041 237.046C253.6 236.565 253.38 235.933 253.38 235.151C253.38 234.383 253.594 233.751 254.021 233.257C254.456 232.762 255.027 232.515 255.735 232.515ZM255.735 233.106C255.254 233.106 254.857 233.267 254.542 233.588C254.235 233.902 254.061 234.309 254.021 234.81H257.379C257.379 234.283 257.229 233.868 256.928 233.567C256.634 233.26 256.237 233.106 255.735 233.106ZM261.537 232.575V233.197C261.33 233.197 261.14 233.23 260.966 233.297C260.799 233.364 260.649 233.467 260.515 233.608C260.355 233.761 260.234 233.948 260.154 234.169C260.074 234.389 260.034 234.643 260.034 234.931V237.657H259.402V232.625H259.994L260.014 233.537C260.114 233.27 260.291 233.043 260.545 232.856C260.806 232.669 261.136 232.575 261.537 232.575ZM264.166 232.515C264.721 232.515 265.145 232.672 265.439 232.986C265.74 233.293 265.89 233.731 265.89 234.299V237.657H265.289L265.269 236.926C265.135 237.166 264.928 237.367 264.647 237.527C264.366 237.687 264.042 237.768 263.675 237.768C263.24 237.768 262.893 237.644 262.632 237.397C262.378 237.149 262.251 236.825 262.251 236.424C262.251 236.037 262.365 235.726 262.592 235.492C262.819 235.252 263.16 235.084 263.615 234.991L265.249 234.65V234.319C265.249 233.912 265.158 233.608 264.978 233.407C264.797 233.207 264.527 233.106 264.166 233.106C263.832 233.106 263.558 233.2 263.344 233.387C263.13 233.567 263.023 233.835 263.023 234.189H262.392C262.398 233.708 262.562 233.31 262.883 232.996C263.21 232.675 263.638 232.515 264.166 232.515ZM265.249 235.221L263.735 235.552C263.461 235.619 263.25 235.716 263.103 235.843C262.963 235.97 262.893 236.16 262.893 236.414C262.893 236.655 262.966 236.842 263.113 236.976C263.267 237.109 263.481 237.176 263.755 237.176C263.995 237.176 264.213 237.133 264.406 237.046C264.6 236.952 264.771 236.815 264.918 236.635C265.031 236.488 265.115 236.334 265.168 236.174C265.222 236.007 265.249 235.83 265.249 235.642V235.221ZM268.08 230.34V237.657H267.448V230.34H268.08Z" fill="#000039"/>
    <path d="M8.76652 77.4486V82.4808H8.135V77.4486H8.76652ZM8.45577 75.3636C8.58943 75.3636 8.70304 75.4137 8.7966 75.514C8.89684 75.6075 8.94696 75.7211 8.94696 75.8548C8.94696 75.9884 8.89684 76.1021 8.7966 76.1956C8.70304 76.2892 8.58943 76.336 8.45577 76.336C8.31544 76.336 8.19849 76.2892 8.10493 76.1956C8.01137 76.1021 7.96459 75.9884 7.96459 75.8548C7.96459 75.7211 8.01137 75.6075 8.10493 75.514C8.19849 75.4137 8.31544 75.3636 8.45577 75.3636ZM12.4601 77.3384C12.9881 77.3384 13.3924 77.5121 13.673 77.8596C13.9604 78.2071 14.1041 78.6649 14.1041 79.2329V82.4808H13.4726V79.2931C13.4726 78.8587 13.3723 78.5279 13.1718 78.3007C12.978 78.0668 12.7074 77.9498 12.3599 77.9498C11.9723 77.9498 11.6548 78.1069 11.4076 78.421C11.1603 78.7351 11.0367 79.1561 11.0367 79.684V82.4808H10.4052V77.4486H10.9866L11.0166 78.2105C11.1169 77.9766 11.2973 77.7728 11.5579 77.599C11.8186 77.4252 12.1193 77.3384 12.4601 77.3384ZM19.6022 77.4486L17.6174 82.4808H17.0059L15.0211 77.4486H15.6928L17.2064 81.348L17.3067 81.6989L17.4169 81.348L18.9205 77.4486H19.6022ZM22.5106 77.3384C23.1989 77.3384 23.7503 77.5589 24.1646 78C24.5856 78.4343 24.7961 79.0525 24.7961 79.8544V80.2053H20.7965C20.8232 80.7533 20.997 81.191 21.3177 81.5185C21.6452 81.8392 22.0528 81.9996 22.5407 81.9996C22.935 81.9996 23.2591 81.9228 23.513 81.7691C23.7737 81.6087 23.9641 81.3714 24.0844 81.0573H24.736C24.5823 81.5452 24.315 81.9228 23.934 82.1901C23.5598 82.4574 23.092 82.591 22.5307 82.591C21.8357 82.591 21.2643 82.3505 20.8165 81.8693C20.3755 81.3881 20.1549 80.7566 20.1549 79.9747C20.1549 79.2062 20.3688 78.5747 20.7965 78.0802C21.2309 77.5856 21.8022 77.3384 22.5106 77.3384ZM22.5106 77.9298C22.0295 77.9298 21.6318 78.0902 21.3177 78.411C21.0103 78.725 20.8366 79.1327 20.7965 79.6339H24.1546C24.1546 79.106 24.0042 78.6916 23.7035 78.3909C23.4094 78.0835 23.0118 77.9298 22.5106 77.9298ZM27.4606 77.3384C27.9351 77.3384 28.316 77.4754 28.6034 77.7494C28.8974 78.0167 29.0478 78.3842 29.0544 78.852H28.4029C28.3962 78.5446 28.3127 78.3141 28.1523 78.1604C27.9919 78.0066 27.7546 77.9298 27.4406 77.9298C27.1398 77.9298 26.9093 78.0033 26.7489 78.1503C26.5885 78.2907 26.5083 78.4811 26.5083 78.7217C26.5083 78.969 26.5818 79.1527 26.7288 79.273C26.8759 79.3866 27.1632 79.5003 27.5909 79.6139C28.1723 79.7742 28.59 79.968 28.8439 80.1953C29.0979 80.4158 29.2249 80.7199 29.2249 81.1075C29.2249 81.5619 29.0645 81.9228 28.7437 82.1901C28.4296 82.4574 28.022 82.591 27.5207 82.591C26.9661 82.591 26.5283 82.4474 26.2076 82.16C25.8935 81.866 25.7331 81.4817 25.7264 81.0072H26.378C26.3847 81.3213 26.4883 81.5652 26.6887 81.739C26.8892 81.9127 27.1732 81.9996 27.5408 81.9996C27.8816 81.9996 28.1389 81.9194 28.3127 81.759C28.4931 81.5986 28.5833 81.3915 28.5833 81.1375C28.5833 80.8903 28.4964 80.6965 28.3227 80.5561C28.1489 80.4158 27.8348 80.2888 27.3804 80.1752C26.8591 80.0416 26.4749 79.8711 26.2276 79.664C25.987 79.4501 25.8668 79.1461 25.8668 78.7518C25.8668 78.3508 26.0071 78.0167 26.2878 77.7494C26.5751 77.4754 26.9661 77.3384 27.4606 77.3384ZM31.3949 76.1655L31.3848 77.4486H32.7481V78.0401H31.3748L31.3548 81.0974C31.3548 81.4048 31.4049 81.6287 31.5051 81.7691C31.612 81.9027 31.8125 81.9695 32.1066 81.9695C32.2135 81.9695 32.3204 81.9629 32.4273 81.9495C32.5343 81.9294 32.6412 81.9027 32.7481 81.8693V82.4407C32.6612 82.4808 32.5577 82.5075 32.4374 82.5209C32.3238 82.5409 32.1901 82.5509 32.0364 82.5509C31.5953 82.5509 31.2645 82.444 31.044 82.2302C30.8302 82.0096 30.7266 81.6588 30.7333 81.1776L30.7533 78.0401H29.7509V77.4486H30.7533L30.7633 76.1655H31.3949ZM35.775 77.3384C36.4634 77.3384 37.0147 77.5589 37.429 78C37.85 78.4343 38.0605 79.0525 38.0605 79.8544V80.2053H34.0609C34.0876 80.7533 34.2614 81.191 34.5821 81.5185C34.9096 81.8392 35.3173 81.9996 35.8051 81.9996C36.1994 81.9996 36.5235 81.9228 36.7774 81.7691C37.0381 81.6087 37.2285 81.3714 37.3488 81.0573H38.0004C37.8467 81.5452 37.5794 81.9228 37.1985 82.1901C36.8242 82.4574 36.3564 82.591 35.7951 82.591C35.1001 82.591 34.5287 82.3505 34.0809 81.8693C33.6399 81.3881 33.4193 80.7566 33.4193 79.9747C33.4193 79.2062 33.6332 78.5747 34.0609 78.0802C34.4953 77.5856 35.0667 77.3384 35.775 77.3384ZM35.775 77.9298C35.2939 77.9298 34.8962 78.0902 34.5821 78.411C34.2747 78.725 34.101 79.1327 34.0609 79.6339H37.419C37.419 79.106 37.2686 78.6916 36.9679 78.3909C36.6739 78.0835 36.2762 77.9298 35.775 77.9298ZM43.6821 75.1631V82.4808H43.1007L43.0807 81.6287C42.9337 81.8827 42.7031 82.1065 42.389 82.3003C42.0749 82.4941 41.704 82.591 41.2763 82.591C40.5613 82.591 39.9899 82.3438 39.5622 81.8493C39.1412 81.3547 38.9307 80.7265 38.9307 79.9647C38.9307 79.2029 39.1445 78.5747 39.5722 78.0802C39.9999 77.5856 40.5713 77.3384 41.2864 77.3384C41.7074 77.3384 42.0749 77.4319 42.389 77.619C42.7031 77.8062 42.927 78.03 43.0606 78.2907V75.1631H43.6821ZM41.3465 77.9398C40.8186 77.9398 40.3909 78.1303 40.0634 78.5112C39.736 78.8921 39.5722 79.3766 39.5722 79.9647C39.5722 80.5595 39.7326 81.0473 40.0534 81.4282C40.3742 81.8092 40.8019 81.9996 41.3365 81.9996C41.811 81.9996 42.2153 81.8292 42.5494 81.4884C42.8902 81.1409 43.0606 80.6798 43.0606 80.105V79.8945C43.0606 79.2998 42.8902 78.8253 42.5494 78.4711C42.2153 78.1169 41.8143 77.9398 41.3465 77.9398ZM48.762 77.3384C49.2365 77.3384 49.6174 77.4754 49.9047 77.7494C50.1988 78.0167 50.3491 78.3842 50.3558 78.852H49.7042C49.6976 78.5446 49.614 78.3141 49.4536 78.1604C49.2933 78.0066 49.056 77.9298 48.7419 77.9298C48.4412 77.9298 48.2106 78.0033 48.0503 78.1503C47.8899 78.2907 47.8097 78.4811 47.8097 78.7217C47.8097 78.969 47.8832 79.1527 48.0302 79.273C48.1772 79.3866 48.4646 79.5003 48.8923 79.6139C49.4737 79.7742 49.8914 79.968 50.1453 80.1953C50.3993 80.4158 50.5262 80.7199 50.5262 81.1075C50.5262 81.5619 50.3658 81.9228 50.0451 82.1901C49.731 82.4574 49.3233 82.591 48.8221 82.591C48.2674 82.591 47.8297 82.4474 47.509 82.16C47.1949 81.866 47.0345 81.4817 47.0278 81.0072H47.6794C47.686 81.3213 47.7896 81.5652 47.9901 81.739C48.1906 81.9127 48.4746 81.9996 48.8422 81.9996C49.183 81.9996 49.4403 81.9194 49.614 81.759C49.7945 81.5986 49.8847 81.3915 49.8847 81.1375C49.8847 80.8903 49.7978 80.6965 49.6241 80.5561C49.4503 80.4158 49.1362 80.2888 48.6818 80.1752C48.1605 80.0416 47.7763 79.8711 47.529 79.664C47.2884 79.4501 47.1681 79.1461 47.1681 78.7518C47.1681 78.3508 47.3085 78.0167 47.5891 77.7494C47.8765 77.4754 48.2674 77.3384 48.762 77.3384ZM52.4657 77.4486V82.4808H51.8342V77.4486H52.4657ZM52.1549 75.3636C52.2886 75.3636 52.4022 75.4137 52.4957 75.514C52.596 75.6075 52.6461 75.7211 52.6461 75.8548C52.6461 75.9884 52.596 76.1021 52.4957 76.1956C52.4022 76.2892 52.2886 76.336 52.1549 76.336C52.0146 76.336 51.8976 76.2892 51.8041 76.1956C51.7105 76.1021 51.6637 75.9884 51.6637 75.8548C51.6637 75.7211 51.7105 75.6075 51.8041 75.514C51.8976 75.4137 52.0146 75.3636 52.1549 75.3636ZM56.1593 77.3384C56.6872 77.3384 57.0915 77.5121 57.3722 77.8596C57.6596 78.2071 57.8032 78.6649 57.8032 79.2329V82.4808H57.1717V79.2931C57.1717 78.8587 57.0715 78.5279 56.871 78.3007C56.6772 78.0668 56.4065 77.9498 56.059 77.9498C55.6714 77.9498 55.354 78.1069 55.1067 78.421C54.8595 78.7351 54.7358 79.1561 54.7358 79.684V82.4808H54.1043V77.4486H54.6857L54.7158 78.2105C54.816 77.9766 54.9965 77.7728 55.2571 77.599C55.5177 77.4252 55.8184 77.3384 56.1593 77.3384ZM61.2965 77.3384C61.8445 77.3384 62.3123 77.4754 62.6999 77.7494C63.0942 78.0167 63.3581 78.4009 63.4918 78.9021H62.8402C62.7333 78.5947 62.5395 78.3575 62.2588 78.1904C61.9848 78.0167 61.6674 77.9298 61.3065 77.9298C60.7986 77.9298 60.3776 78.1236 60.0435 78.5112C59.7093 78.8988 59.5423 79.3866 59.5423 79.9747C59.5423 80.5494 59.7093 81.0306 60.0435 81.4182C60.3843 81.8058 60.8087 81.9996 61.3166 81.9996C61.6774 81.9996 61.9949 81.9127 62.2689 81.739C62.5428 81.5652 62.7333 81.328 62.8402 81.0273H63.4918C63.3515 81.5285 63.0842 81.9161 62.6899 82.1901C62.3023 82.4574 61.8378 82.591 61.2965 82.591C60.6015 82.591 60.0268 82.3438 59.5723 81.8493C59.1246 81.348 58.9007 80.7232 58.9007 79.9747C58.9007 79.2129 59.1246 78.5847 59.5723 78.0902C60.0268 77.589 60.6015 77.3384 61.2965 77.3384ZM66.6405 77.3384C67.3288 77.3384 67.8801 77.5589 68.2945 78C68.7155 78.4343 68.926 79.0525 68.926 79.8544V80.2053H64.9264C64.9531 80.7533 65.1268 81.191 65.4476 81.5185C65.7751 81.8392 66.1827 81.9996 66.6706 81.9996C67.0648 81.9996 67.389 81.9228 67.6429 81.7691C67.9035 81.6087 68.094 81.3714 68.2143 81.0573H68.8659C68.7122 81.5452 68.4448 81.9228 68.0639 82.1901C67.6897 82.4574 67.2219 82.591 66.6605 82.591C65.9655 82.591 65.3942 82.3505 64.9464 81.8693C64.5053 81.3881 64.2848 80.7566 64.2848 79.9747C64.2848 79.2062 64.4987 78.5747 64.9264 78.0802C65.3607 77.5856 65.9321 77.3384 66.6405 77.3384ZM66.6405 77.9298C66.1593 77.9298 65.7617 78.0902 65.4476 78.411C65.1402 78.725 64.9665 79.1327 64.9264 79.6339H68.2845C68.2845 79.106 68.1341 78.6916 67.8334 78.3909C67.5393 78.0835 67.1417 77.9298 66.6405 77.9298ZM73.9756 75.3335C74.5771 75.3335 75.0382 75.5039 75.3589 75.8448C75.6864 76.1789 75.8501 76.64 75.8501 77.2281C75.8501 77.5489 75.78 77.883 75.6396 78.2305C75.506 78.5713 75.2988 78.9255 75.0181 79.2931L73.0434 81.8593H76.0105V82.4808H72.1312V81.9896L74.4467 78.9924C74.7207 78.6449 74.9112 78.3441 75.0181 78.0902C75.125 77.8362 75.1785 77.5556 75.1785 77.2482C75.1785 76.8138 75.0783 76.4897 74.8778 76.2758C74.6773 76.062 74.3732 75.955 73.9656 75.955C73.5913 75.955 73.2873 76.0787 73.0534 76.3259C72.8262 76.5732 72.7126 76.9407 72.7126 77.4286H72.051C72.051 76.787 72.2247 76.2791 72.5722 75.9049C72.9264 75.524 73.3942 75.3335 73.9756 75.3335ZM81.4178 78.9623C81.4178 80.0783 81.2173 80.9671 80.8163 81.6287C80.4154 82.2836 79.854 82.6111 79.1323 82.6111C78.4038 82.6111 77.8391 82.2836 77.4382 81.6287C77.0439 80.9671 76.8467 80.0783 76.8467 78.9623C76.8467 77.8463 77.0439 76.9641 77.4382 76.3159C77.8391 75.661 78.4038 75.3335 79.1323 75.3335C79.8607 75.3335 80.422 75.661 80.8163 76.3159C81.2173 76.9708 81.4178 77.8529 81.4178 78.9623ZM79.1323 75.955C78.6043 75.955 78.2034 76.2223 77.9294 76.757C77.6554 77.2916 77.5184 78.0267 77.5184 78.9623C77.5184 79.9046 77.6554 80.6463 77.9294 81.1877C78.2034 81.7223 78.6043 81.9896 79.1323 81.9896C79.6535 81.9896 80.0511 81.7189 80.3251 81.1776C80.5991 80.6363 80.7361 79.8979 80.7361 78.9623C80.7361 78.0267 80.5991 77.2916 80.3251 76.757C80.0511 76.2223 79.6535 75.955 79.1323 75.955ZM84.2729 75.4638V82.4808H83.6113V76.8271H82.1378V76.2658C82.6858 76.2658 83.07 76.2123 83.2906 76.1054C83.5111 75.9985 83.6615 75.7846 83.7417 75.4638H84.2729ZM87.5843 82.6111C87.043 82.6111 86.5952 82.4474 86.2411 82.1199C85.8869 81.7858 85.6964 81.338 85.6697 80.7767H86.3413C86.3881 81.1776 86.515 81.4817 86.7222 81.6889C86.9361 81.8893 87.2301 81.9896 87.6043 81.9896C88.1456 81.9896 88.55 81.739 88.8173 81.2378C89.0913 80.7366 89.2316 79.938 89.2383 78.842C89.1046 79.0893 88.8874 79.2964 88.5867 79.4635C88.286 79.6306 87.9619 79.7141 87.6144 79.7141C86.9661 79.7141 86.4516 79.5103 86.0706 79.1026C85.6964 78.6883 85.5093 78.1737 85.5093 77.5589C85.5093 76.924 85.7031 76.3961 86.0907 75.9751C86.4783 75.5474 86.9929 75.3335 87.6344 75.3335C87.9619 75.3335 88.2559 75.3903 88.5165 75.5039C88.7839 75.6176 89.0211 75.788 89.2283 76.0152C89.4555 76.2691 89.6259 76.6267 89.7395 77.0878C89.8531 77.5422 89.9099 78.1035 89.9099 78.7718C89.9099 80.0349 89.7228 80.9905 89.3485 81.6387C88.981 82.287 88.3929 82.6111 87.5843 82.6111ZM87.6444 79.1026C88.0521 79.1026 88.4029 78.9556 88.697 78.6616C88.9977 78.3608 89.1481 77.9933 89.1481 77.5589C89.1481 77.1446 89.0077 76.7737 88.727 76.4462C88.4464 76.1121 88.0855 75.945 87.6444 75.945C87.2101 75.945 86.8592 76.0987 86.5919 76.4061C86.3246 76.7068 86.1909 77.0878 86.1909 77.5489C86.1909 77.9833 86.3246 78.3508 86.5919 78.6515C86.8592 78.9523 87.2101 79.1026 87.6444 79.1026Z" fill="#000039"/>
    <path d="M160.787 142.279L199.982 112.135" stroke="#000039" stroke-width="0.626511" stroke-miterlimit="10"/>
    <path d="M160.723 92.9003L199.982 6.68622" stroke="#000039" stroke-width="0.626511" stroke-miterlimit="10"/>
    <path d="M329.001 112.135L200.105 142.279" stroke="#000039" stroke-width="0.626511" stroke-miterlimit="10"/>
    <path d="M199.982 112.19L329.001 112.19V6.7412L199.982 6.7412V112.19Z" stroke="#000039" stroke-width="0.626511" stroke-miterlimit="10"/>
    <path d="M160.787 92.7046V142.279H200.105" stroke="#000039" stroke-width="0.626511" stroke-miterlimit="10"/>
    <path d="M160.77 142.279H135.722" stroke="#000039" stroke-width="0.626511" stroke-miterlimit="10"/>
    <path d="M160.774 142.279L191.596 173.121" stroke="#000039" stroke-width="0.626511" stroke-miterlimit="10"/>
    <path d="M160.774 165.852L191.596 278.351" stroke="#000039" stroke-width="0.626511" stroke-miterlimit="10"/>
    <path d="M306.715 172.909L200.105 142.279" stroke="#000039" stroke-width="0.626511" stroke-miterlimit="10"/>
    <path d="M191.608 278.297H306.52V173.067H191.608V278.297Z" stroke="#000039" stroke-width="0.626511" stroke-miterlimit="10"/>
    <path d="M160.774 165.852V142.279H200.105" stroke="#000039" stroke-width="0.626511" stroke-miterlimit="10"/>
    <path d="M160.75 142.281L108.094 100.281" stroke="#000039" stroke-width="0.626511" stroke-miterlimit="10"/>
    <path d="M135.938 142.281L1.00049 100.25" stroke="#000039" stroke-width="0.626511" stroke-miterlimit="10"/>
    <path d="M108.188 32.3125L160.75 125.25" stroke="#000039" stroke-width="0.626511" stroke-miterlimit="10"/>
    <path d="M108.144 32.3622H1V100.316H108.144V32.3622Z" stroke="#000039" stroke-width="0.626511" stroke-miterlimit="10"/>
</svg>