<svg width="330" height="273" viewBox="0 0 330 273" fill="none" xmlns="http://www.w3.org/2000/svg">
    <path d="M160.787 136.279L199.982 106.135" stroke="#000039" stroke-width="0.626511" stroke-miterlimit="10"/>
    <path d="M160.723 86.9003L199.982 0.686218" stroke="#000039" stroke-width="0.626511" stroke-miterlimit="10"/>
    <path d="M329.001 106.135L200.105 136.279" stroke="#000039" stroke-width="0.626511" stroke-miterlimit="10"/>
    <path d="M199.982 106.19L329.001 106.19V0.741203L199.982 0.741203V106.19Z" stroke="#000039" stroke-width="0.626511" stroke-miterlimit="10"/>
    <path d="M160.787 86.7046V136.279H200.105" stroke="#000039" stroke-width="0.626511" stroke-miterlimit="10"/>
    <path d="M160.77 136.279H135.722" stroke="#000039" stroke-width="0.626511" stroke-miterlimit="10"/>
    <path d="M160.774 136.279L191.596 167.121" stroke="#000039" stroke-width="0.626511" stroke-miterlimit="10"/>
    <path d="M160.774 159.852L191.596 272.351" stroke="#000039" stroke-width="0.626511" stroke-miterlimit="10"/>
    <path d="M306.715 166.909L200.105 136.279" stroke="#000039" stroke-width="0.626511" stroke-miterlimit="10"/>
    <path d="M191.608 272.297H306.52V167.067H191.608V272.297Z" stroke="#000039" stroke-width="0.626511" stroke-miterlimit="10"/>
    <path d="M160.774 159.852V136.279H200.105" stroke="#000039" stroke-width="0.626511" stroke-miterlimit="10"/>
    <path d="M160.75 136.281L108.094 94.2812" stroke="#000039" stroke-width="0.626511" stroke-miterlimit="10"/>
    <path d="M135.938 136.281L1.00049 94.25" stroke="#000039" stroke-width="0.626511" stroke-miterlimit="10"/>
    <path d="M108.188 26.3125L160.75 119.25" stroke="#000039" stroke-width="0.626511" stroke-miterlimit="10"/>
    <path d="M108.144 26.3622H1V94.3161H108.144V26.3622Z" stroke="#000039" stroke-width="0.626511" stroke-miterlimit="10"/>
</svg>