<svg width="336" height="260" viewBox="0 0 336 260" fill="none" xmlns="http://www.w3.org/2000/svg">
<mask id="mask0_1193_24698" style="mask-type:alpha" maskUnits="userSpaceOnUse" x="36" y="0" width="261" height="260">
<path fill-rule="evenodd" clip-rule="evenodd" d="M166.541 260C238.338 260 296.541 201.797 296.541 130C296.541 58.203 238.338 0 166.541 0C94.744 0 36.541 58.203 36.541 130C36.541 201.797 94.744 260 166.541 260ZM166.541 197.935C202.403 197.935 231.476 168.862 231.476 133C231.476 97.1377 202.403 68.0656 166.541 68.0656C130.679 68.0656 101.607 97.1377 101.607 133C101.607 168.862 130.679 197.935 166.541 197.935Z" fill="#000039"/>
</mask>
<g mask="url(#mask0_1193_24698)">
<rect x="10.8809" y="-25.121" width="311.319" height="310.242" fill="#007AC2"/>
<path d="M168.77 130.495L28.9985 203.157C21.533 186.236 15.2367 157.969 14.1607 139.505L168.77 130.495Z" fill="#00BFF3" stroke="white" stroke-width="2"/>
<path d="M168.769 130.495L28.9981 203.157C21.5326 186.236 42.9128 236.796 41.8367 218.333L168.769 130.495Z" fill="#00BFF3" stroke="white" stroke-width="2"/>
<path d="M171.318 128.175L45.612 224.797C38.1464 207.877 42.8228 237.567 41.7468 219.104L171.318 128.175Z" fill="#00BFF3" stroke="white" stroke-width="2"/>
<path d="M168.77 130.495L14.1611 139.505C12.6423 113.445 17.7355 87.4236 28.9674 63.8589L168.77 130.495Z" fill="#2E9BD2" stroke="white" stroke-width="2"/>
<path d="M157.533 125.417L36.2923 75.99C44.147 59.5109 60.461 38.9334 74.3982 27.1432L157.533 125.417Z" fill="#00BFF3" stroke="white" stroke-width="2"/>
</g>
<path d="M8.87109 110L31.7213 110" stroke="#C29B57"/>
<path d="M302.916 138.308H328.564" stroke="#000039"/>
<path d="M8.87109 156.98L33.9118 156.98" stroke="#000039"/>
<path d="M9.99046 196.629L49.1374 196.629" stroke="#000039"/>
<path d="M9.99046 42.9604H48.5327L57.3025 51.7303" stroke="#000039"/>
<path d="M9.99023 228.221H43.6273L58.9589 212.889" stroke="#000039"/>
<rect x="0.474609" y="30.6797" width="24.5625" height="24.5625" rx="12.2812" fill="#000039"/>
<path d="M10.6299 40.7764V39.4502C11.4046 39.4502 11.9788 39.3545 12.3525 39.1631C12.7308 38.9671 12.9792 38.6322 13.0977 38.1582H14.2734V47.9609H12.7012V40.7764H10.6299Z" fill="white"/>
<rect x="310.961" y="126.026" width="24.5625" height="24.5625" rx="12.2812" fill="#000039"/>
<path d="M320.022 138.632C320.022 136.854 320.303 135.526 320.863 134.646C321.424 133.767 322.287 133.327 323.454 133.327C324.284 133.327 324.965 133.587 325.498 134.106C326.036 134.617 326.325 135.298 326.366 136.15H324.767C324.698 135.248 324.243 134.797 323.399 134.797C322.812 134.797 322.369 135.059 322.073 135.583C321.782 136.103 321.627 136.927 321.608 138.058C321.804 137.802 322.073 137.597 322.415 137.442C322.761 137.283 323.135 137.203 323.536 137.203C324.452 137.203 325.186 137.493 325.737 138.071C326.289 138.65 326.564 139.384 326.564 140.272C326.564 141.229 326.271 142.009 325.683 142.61C325.108 143.198 324.352 143.492 323.413 143.492C322.401 143.492 321.604 143.16 321.021 142.494C320.355 141.71 320.022 140.423 320.022 138.632ZM321.704 140.286C321.704 140.756 321.859 141.166 322.169 141.517C322.483 141.872 322.88 142.05 323.358 142.05C323.828 142.05 324.211 141.886 324.507 141.558C324.803 141.225 324.951 140.806 324.951 140.3C324.951 139.812 324.801 139.409 324.5 139.09C324.204 138.766 323.823 138.604 323.358 138.604C322.903 138.604 322.515 138.757 322.196 139.062C321.882 139.363 321.718 139.746 321.704 140.211V140.286Z" fill="white"/>
<rect x="0.474609" y="97.7188" width="24.5625" height="24.5625" rx="12.2812" fill="#000039"/>
<path d="M9.91211 108.096C9.89844 107.157 10.1605 106.412 10.6982 105.86C11.2314 105.3 11.9447 105.02 12.8379 105.02C13.7311 105.02 14.4238 105.268 14.916 105.765C15.4082 106.257 15.6543 106.931 15.6543 107.788C15.6543 108.303 15.5563 108.782 15.3604 109.224C15.1644 109.666 14.8613 110.14 14.4512 110.646L12.1543 113.53H15.75V115H9.98047V113.852L13.0635 110.058C13.4372 109.602 13.6969 109.219 13.8428 108.909C13.9932 108.595 14.0684 108.246 14.0684 107.863C14.0684 106.947 13.6491 106.489 12.8105 106.489C12.3867 106.489 12.0563 106.626 11.8193 106.899C11.5869 107.168 11.473 107.567 11.4775 108.096H9.91211Z" fill="white"/>
<rect x="0.474609" y="144.699" width="24.5625" height="24.5625" rx="12.2812" fill="#000039"/>
<path d="M9.56348 159.082H11.1289C11.1335 159.611 11.2816 160.012 11.5732 160.285C11.8695 160.559 12.2728 160.695 12.7832 160.695C13.2389 160.695 13.6035 160.559 13.877 160.285C14.1549 160.012 14.2939 159.647 14.2939 159.191C14.2939 158.672 14.1185 158.278 13.7676 158.009C13.4212 157.735 12.9245 157.599 12.2773 157.599H11.8467V156.225H12.2637C12.8516 156.225 13.2822 156.115 13.5557 155.896C13.8337 155.678 13.9727 155.331 13.9727 154.857C13.9727 154.424 13.861 154.085 13.6377 153.839C13.4144 153.593 13.0977 153.47 12.6875 153.47C12.2819 153.47 11.9538 153.604 11.7031 153.873C11.4525 154.142 11.3271 154.525 11.3271 155.021H9.76172C9.76172 154.092 10.0238 153.356 10.5479 152.813C11.0765 152.271 11.7852 152 12.6738 152C13.5625 152 14.2666 152.267 14.7861 152.8C15.3011 153.315 15.5586 153.98 15.5586 154.796C15.5586 155.325 15.4355 155.771 15.1895 156.136C14.9434 156.496 14.6312 156.746 14.2529 156.888C14.736 157.029 15.1302 157.305 15.4355 157.715C15.7409 158.125 15.8936 158.638 15.8936 159.253C15.8936 160.123 15.6042 160.827 15.0254 161.365C14.4512 161.898 13.6901 162.165 12.7422 162.165C11.7533 162.165 10.9762 161.894 10.4111 161.352C9.84603 160.809 9.56348 160.053 9.56348 159.082Z" fill="white"/>
<rect x="0.474609" y="184.348" width="24.5625" height="24.5625" rx="12.2812" fill="#000039"/>
<path d="M9.22852 199.742V198.464L12.9951 191.826H14.916V198.327H16.2285V199.742H14.916V201.629H13.3301V199.742H9.22852ZM10.9102 198.341H13.3574V193.918L13.0771 194.492L10.9102 198.341Z" fill="white"/>
<rect x="0.474609" y="217.055" width="24.5625" height="24.5625" rx="12.2812" fill="#000039"/>
<path d="M9.75488 231.581H11.334C11.3385 232.069 11.4753 232.436 11.7441 232.682C12.0176 232.928 12.3936 233.051 12.8721 233.051C13.3597 233.051 13.7402 232.889 14.0137 232.565C14.2917 232.237 14.4307 231.8 14.4307 231.253C14.4307 230.715 14.2894 230.296 14.0068 229.995C13.7243 229.69 13.3324 229.537 12.8311 229.537C12.3024 229.537 11.8353 229.672 11.4297 229.94H10.0352V224.533H15.5039V226.003H11.6279V228.443C12.0062 228.229 12.4961 228.122 13.0977 228.122C13.9818 228.122 14.6882 228.391 15.2168 228.929C15.7454 229.466 16.0098 230.218 16.0098 231.185C16.0098 232.192 15.7249 233.001 15.1553 233.611C14.5902 234.217 13.8245 234.521 12.8584 234.521C11.8877 234.521 11.1266 234.265 10.5752 233.755C10.0283 233.24 9.75488 232.515 9.75488 231.581Z" fill="white"/>
<path d="M121.975 138.501V136.533H123.604C123.588 136.376 123.58 135.994 123.58 135.384C123.58 134.767 123.588 134.369 123.604 134.189H121.975V132.22H123.896C124.295 130.47 125.018 129.115 126.064 128.154C127.111 127.185 128.396 126.701 129.92 126.701C133.162 126.701 135.08 128.38 135.674 131.74H132.768C132.557 130.06 131.607 129.22 129.92 129.22C128.334 129.22 127.252 130.22 126.674 132.22H129.99V134.189H126.369C126.33 134.642 126.311 135.041 126.311 135.384C126.311 135.994 126.318 136.376 126.334 136.533H129.99V138.501H126.674C127.229 140.572 128.311 141.607 129.92 141.607C130.717 141.607 131.357 141.388 131.842 140.951C132.326 140.505 132.635 139.873 132.768 139.052H135.674C135.299 140.755 134.646 142.029 133.717 142.873C132.795 143.708 131.529 144.126 129.92 144.126C128.381 144.126 127.088 143.634 126.041 142.65C125.002 141.666 124.287 140.283 123.896 138.501H121.975ZM136.717 131.494V129.22C138.045 129.22 139.029 129.056 139.67 128.728C140.318 128.392 140.744 127.818 140.947 127.005H142.963V143.81H140.268V131.494H136.717ZM145.682 138.841H148.365C148.373 139.748 148.627 140.435 149.127 140.904C149.635 141.373 150.326 141.607 151.201 141.607C151.982 141.607 152.607 141.373 153.076 140.904C153.553 140.435 153.791 139.81 153.791 139.029C153.791 138.138 153.49 137.462 152.889 137.001C152.295 136.533 151.443 136.298 150.334 136.298H149.596V133.943H150.311C151.318 133.943 152.057 133.755 152.525 133.38C153.002 133.005 153.24 132.412 153.24 131.599C153.24 130.857 153.049 130.275 152.666 129.853C152.283 129.431 151.74 129.22 151.037 129.22C150.342 129.22 149.779 129.451 149.35 129.912C148.92 130.373 148.705 131.029 148.705 131.88H146.021C146.021 130.287 146.471 129.025 147.369 128.095C148.275 127.166 149.49 126.701 151.014 126.701C152.537 126.701 153.744 127.158 154.635 128.072C155.518 128.955 155.959 130.095 155.959 131.494C155.959 132.4 155.748 133.166 155.326 133.791C154.904 134.408 154.369 134.837 153.721 135.08C154.549 135.322 155.225 135.794 155.748 136.498C156.271 137.201 156.533 138.08 156.533 139.134C156.533 140.626 156.037 141.833 155.045 142.755C154.061 143.669 152.756 144.126 151.131 144.126C149.436 144.126 148.104 143.662 147.135 142.732C146.166 141.802 145.682 140.505 145.682 138.841ZM158.303 131.494V129.22C159.631 129.22 160.615 129.056 161.256 128.728C161.904 128.392 162.33 127.818 162.533 127.005H164.549V143.81H161.854V131.494H158.303ZM167.607 143.599C167.287 143.279 167.127 142.876 167.127 142.392C167.127 141.908 167.287 141.517 167.607 141.22C167.928 140.9 168.326 140.74 168.803 140.74C169.279 140.74 169.678 140.9 169.998 141.22C170.334 141.517 170.502 141.908 170.502 142.392C170.502 142.876 170.334 143.279 169.998 143.599C169.678 143.919 169.279 144.08 168.803 144.08C168.326 144.08 167.928 143.919 167.607 143.599ZM172.646 139.087H175.354C175.361 139.923 175.596 140.552 176.057 140.974C176.525 141.396 177.17 141.607 177.99 141.607C178.826 141.607 179.479 141.33 179.947 140.775C180.424 140.212 180.662 139.462 180.662 138.525C180.662 137.603 180.42 136.884 179.936 136.369C179.451 135.845 178.779 135.583 177.92 135.583C177.014 135.583 176.213 135.814 175.518 136.275H173.127V127.005H182.502V129.525H175.857V133.708C176.506 133.341 177.346 133.158 178.377 133.158C179.893 133.158 181.104 133.619 182.01 134.541C182.916 135.462 183.369 136.751 183.369 138.408C183.369 140.134 182.881 141.521 181.904 142.568C180.936 143.607 179.623 144.126 177.967 144.126C176.303 144.126 174.998 143.689 174.053 142.814C173.115 141.931 172.646 140.689 172.646 139.087ZM186.041 143.81V127.005H189.064L194.385 138.654L194.795 139.685L195.252 138.654L200.584 127.005H203.631V143.81H200.936V132.15L200.455 133.509L195.92 143.81H193.693L189.182 133.509L188.725 132.15V143.81H186.041Z" fill="#000039"/>
</svg>
