<svg width="65" height="65" viewBox="0 0 65 65" fill="none" xmlns="http://www.w3.org/2000/svg">
    <path fill-rule="evenodd" clip-rule="evenodd" d="M61.6012 22.4778C61.6012 33.151 52.9513 41.8038 42.276 41.8038C31.6033 41.8038 22.9508 33.151 22.9508 22.4778C22.9508 11.8047 31.6033 3.15186 42.276 3.15186C52.9513 3.15186 61.6012 11.8047 61.6012 22.4778V22.4778Z" stroke="black" stroke-width="1.85203" stroke-linecap="round" stroke-linejoin="round"/>
    <path d="M23.0183 23.8353C11.5288 23.0596 2.33771 32.1325 2.33771 43.0942C2.33771 53.7674 10.9903 62.4202 21.6629 62.4202C32.6113 62.4202 41.6916 53.2468 40.9186 41.7363" stroke="black" stroke-width="1.85203" stroke-linecap="round" stroke-linejoin="round"/>
    <line x1="40.0561" y1="12.952" x2="40.0561" y2="32.0029" stroke="black" stroke-width="1.85203" stroke-linecap="round" stroke-linejoin="round"/>
    <line x1="43.6636" y1="12.952" x2="43.6636" y2="32.0029" stroke="black" stroke-width="1.85203" stroke-linecap="round" stroke-linejoin="round"/>
    <path d="M48.1368 26.8034C47.239 28.0445 45.9774 28.9754 44.5268 29.4672C43.0762 29.959 41.5085 29.9873 40.0412 29.548C38.5738 29.1088 37.2795 28.2238 36.3376 27.0159C35.3958 25.8079 34.8531 24.3369 34.7849 22.8066C34.7166 21.2764 35.1261 19.7628 35.9567 18.4758C36.7872 17.1888 37.9976 16.1921 39.42 15.6239C40.8424 15.0557 42.4064 14.9442 43.895 15.3049C45.3836 15.6656 46.7231 16.4805 47.7278 17.6367" stroke="black" stroke-width="1.85203" stroke-linecap="round" stroke-linejoin="round"/>
    <line x1="18.8956" y1="33.579" x2="18.8956" y2="52.6299" stroke="black" stroke-width="1.85203" stroke-linecap="round" stroke-linejoin="round"/>
    <line x1="22.5762" y1="33.579" x2="22.5762" y2="52.6299" stroke="black" stroke-width="1.85203" stroke-linecap="round" stroke-linejoin="round"/>
    <path d="M26.8445 47.4308C25.9467 48.6719 24.6851 49.6029 23.2345 50.0947C21.7839 50.5865 20.2162 50.6147 18.7489 50.1755C17.2815 49.7362 15.9872 48.8513 15.0454 47.6433C14.1035 46.4354 13.5608 44.9643 13.4926 43.4341C13.4243 41.9038 13.8338 40.3902 14.6644 39.1032C15.4949 37.8162 16.7053 36.8195 18.1277 36.2513C19.5501 35.6832 21.1141 35.5717 22.6027 35.9323C24.0913 36.293 25.4308 37.1079 26.4355 38.2641" stroke="black" stroke-width="1.85203" stroke-linecap="round" stroke-linejoin="round"/>
</svg>