<svg width="63" height="64" viewBox="0 0 63 64" fill="none" xmlns="http://www.w3.org/2000/svg">
    <path d="M1.11719 62.6747L61.9297 1.86218" stroke="black" stroke-width="2" stroke-linecap="round" stroke-linejoin="round"/>
    <path fill-rule="evenodd" clip-rule="evenodd" d="M21.4946 13.9926C21.4946 19.2033 17.2732 23.4274 12.0598 23.4274C6.84639 23.4274 2.625 19.2033 2.625 13.9926C2.625 8.78195 6.84639 4.55786 12.0598 4.55786C17.2732 4.55786 21.4946 8.78195 21.4946 13.9926V13.9926Z" stroke="black" stroke-width="2" stroke-linecap="round" stroke-linejoin="round"/>
    <path fill-rule="evenodd" clip-rule="evenodd" d="M59.2338 51.7318C59.2338 56.9425 55.0124 61.1666 49.799 61.1666C44.5856 61.1666 40.3643 56.9425 40.3643 51.7318C40.3643 46.5211 44.5856 42.297 49.799 42.297C55.0124 42.297 59.2338 46.5211 59.2338 51.7318V51.7318Z" stroke="black" stroke-width="2" stroke-linecap="round" stroke-linejoin="round"/>
    <path d="M61.9299 19.3839V1.86218H44.4082" stroke="black" stroke-width="2" stroke-linecap="round" stroke-linejoin="round"/>
</svg>