<svg width="22" height="16" viewBox="0 0 22 16" fill="none" xmlns="http://www.w3.org/2000/svg">
    <path fill-rule="evenodd" clip-rule="evenodd" d="M-0.000976562 1C-0.000976562 0.447715 0.446739 0 0.999024 0H20.999C21.5513 0 21.999 0.447717 21.999 1C21.999 1.55229 21.5513 2 20.999 2L0.999023 2C0.446739 2 -0.000976562 1.55228 -0.000976562 1ZM-0.000976562 8C-0.000976562 7.44772 0.446739 7 0.999024 7L20.999 7C21.5513 7 21.999 7.44772 21.999 8C21.999 8.55229 21.5513 9 20.999 9L0.999023 9C0.446739 9 -0.000976562 8.55229 -0.000976562 8ZM0.999023 14C0.446739 14 -0.000976562 14.4477 -0.000976562 15C-0.000976562 15.5523 0.446739 16 0.999023 16H20.999C21.5513 16 21.999 15.5523 21.999 15C21.999 14.4477 21.5513 14 20.999 14H0.999023Z" fill="white"/>
</svg>