<svg width="48" height="49" viewBox="0 0 48 49" fill="none" xmlns="http://www.w3.org/2000/svg">
    <rect y="0.432373" width="48" height="48" rx="24" fill="#000039"/>
    <path d="M37.3242 35.7575C35.7492 35.72 34.2117 35.72 32.6367 35.7575C32.2992 35.7575 32.2242 35.6825 32.2242 35.345C32.2242 32.57 32.2242 29.7575 32.2242 26.9825C32.2242 26.345 32.1867 25.7075 31.9992 25.1075C31.4367 23.1575 29.1867 22.445 27.5742 23.7575C26.7117 24.4325 26.3742 25.37 26.3742 26.495C26.3742 29.12 26.3742 31.745 26.3742 34.37C26.3742 34.7075 26.3367 35.045 26.3742 35.42C26.4117 35.72 26.2617 35.795 25.9992 35.7575C24.3867 35.7575 22.8117 35.7575 21.1992 35.7575C20.8992 35.7575 20.8242 35.6825 20.8242 35.3825C20.8617 33.02 20.8617 30.6575 20.8617 28.2575C20.8617 25.3325 20.8617 22.4075 20.8242 19.52C20.8242 19.1825 20.8992 19.1075 21.1992 19.1075C22.8117 19.1075 24.3867 19.1075 25.9992 19.1075C26.2992 19.1075 26.3742 19.1825 26.3742 19.4825C26.3742 20.0825 26.3742 20.6825 26.3742 21.395C26.4867 21.2825 26.5242 21.245 26.5617 21.2075C28.0242 19.07 30.0867 18.47 32.5242 18.845C35.3367 19.295 37.1367 21.245 37.5867 24.245C37.6992 24.9575 37.7367 25.67 37.7367 26.3825C37.7367 29.3825 37.7367 32.345 37.7367 35.345C37.7367 35.645 37.6617 35.7575 37.3242 35.7575Z" fill="white"/>
    <path d="M17.825 27.4324C17.825 30.0574 17.825 32.6824 17.825 35.3074C17.825 35.6449 17.75 35.7574 17.4125 35.7574C15.8375 35.7199 14.2625 35.7574 12.6875 35.7574C12.3875 35.7574 12.3125 35.6824 12.3125 35.3824C12.3125 30.0949 12.3125 24.7699 12.3125 19.4824C12.3125 19.2199 12.3875 19.1074 12.6875 19.1074C14.3 19.1074 15.9125 19.1074 17.525 19.1074C17.8625 19.1074 17.9 19.2199 17.9 19.5199C17.825 22.1449 17.825 24.7699 17.825 27.4324Z" fill="white"/>
    <path d="M18.0874 14.7574C17.7124 16.2574 16.1749 17.1199 14.4124 16.8199C12.5374 16.5199 11.4874 14.6824 12.1624 12.8824C12.6124 11.7574 13.6999 11.0824 15.0874 11.1199C17.1874 11.0824 18.5749 12.7699 18.0874 14.7574Z" fill="white"/>
</svg>