<svg width="135" height="28" viewBox="0 0 135 28" fill="none" xmlns="http://www.w3.org/2000/svg">
    <g clip-path="url(#clip0_1193_19914)">
        <path d="M0 27.4454V5.39502H4.39544V23.3883H13.7435V27.4251H0V27.4454Z" fill="white"/>
        <path d="M9.90527 5.39502H15.023L19.8311 13.0832L20.5947 14.5641L21.3995 13.0832L26.2076 5.39502H31.3253L22.844 19.25V27.4251H18.3866V19.25L9.90527 5.39502Z" fill="white"/>
        <path d="M33.2238 27.4454V5.39502H37.5779L46.7609 18.7429L47.6895 20.244V5.39502H52.085V27.4454H47.6895L38.4653 14.1381L37.5986 12.6775V27.4454H33.2031H33.2238Z" fill="white"/>
        <path d="M87.9091 4.98932C90.3854 4.98932 92.4696 5.5776 94.1618 6.75416C95.8539 7.93072 97.0302 9.55356 97.6699 11.6227H95.2967C94.7808 10.1824 93.9141 9.02614 92.6553 8.19443C91.3966 7.36273 89.8282 6.93673 87.9091 6.93673C85.3502 6.93673 83.2454 7.82929 81.5945 9.6347C79.9436 11.4198 79.1182 13.6918 79.1182 16.4101C79.1182 19.1283 79.9436 21.4003 81.5945 23.1854C83.2454 24.9705 85.3502 25.8834 87.9091 25.8834C89.8489 25.8834 91.4378 25.4574 92.6966 24.5851C93.9348 23.7331 94.8221 22.5769 95.338 21.1163H97.7111C97.0508 23.2666 95.8745 24.9097 94.203 26.066C92.5315 27.2222 90.4267 27.8105 87.9091 27.8105C84.7105 27.8105 82.0691 26.7151 80.0055 24.5445C77.942 22.374 76.9102 19.6557 76.9102 16.3695C76.9102 13.0832 77.942 10.365 80.0055 8.19443C82.0691 6.02388 84.7105 4.92847 87.9091 4.92847V4.98932Z" fill="white"/>
        <path d="M109.865 5.41528L119.048 27.4453H116.675L114.013 21.0554H103.633L101.033 27.4453H98.6602L107.822 5.41528H109.845H109.865ZM108.834 8.27554L108.421 9.43181L104.397 19.0674H113.291L109.246 9.43181L108.834 8.27554Z" fill="white"/>
        <path d="M127.963 5.41528C130.089 5.41528 131.802 6.02385 133.081 7.22069C134.361 8.41754 135 10.0201 135 11.9878C135 13.9555 134.361 15.4769 133.102 16.6535C131.822 17.83 130.11 18.4386 127.963 18.4386H123.774V27.4453H121.669V5.41528H127.984H127.963ZM127.963 7.36269H123.774V16.4912H127.963C129.429 16.4912 130.625 16.0855 131.533 15.2537C132.441 14.4423 132.895 13.3469 132.895 11.9878C132.895 10.6287 132.441 9.4521 131.533 8.62039C130.625 7.78869 129.429 7.36269 127.963 7.36269Z" fill="white"/>
        <path d="M54.6231 5.39502L62.1552 15.9638L54.3755 27.4859H59.5138L64.8172 19.6963L70.3477 27.4454H75.5273L59.8027 5.39502H54.6231Z" fill="white"/>
        <path d="M78.396 0.851074H73.1957L65.1064 12.8398H70.2654L78.396 0.851074Z" fill="white"/>
    </g>
    <defs>
        <clipPath id="clip0_1193_19914">
            <rect width="135" height="27" fill="white" transform="translate(0 0.851074)"/>
        </clipPath>
    </defs>
</svg>