<svg width="135" height="27" viewBox="0 0 135 27" fill="none" xmlns="http://www.w3.org/2000/svg">
    <g clip-path="url(#clip0_1239_1726)">
        <path d="M0 26.5943V4.54395H4.39544V22.5372H13.7435V26.574H0V26.5943Z" fill="#000039"/>
        <path d="M9.90527 4.54395H15.023L19.8311 12.2322L20.5947 13.713L21.3995 12.2322L26.2076 4.54395H31.3253L22.844 18.3989V26.574H18.3866V18.3989L9.90527 4.54395Z" fill="#000039"/>
        <path d="M33.2238 26.5943V4.54395H37.5779L46.7609 17.8918L47.6895 19.3929V4.54395H52.085V26.5943H47.6895L38.4653 13.287L37.5986 11.8264V26.5943H33.2031H33.2238Z" fill="#000039"/>
        <path d="M87.9091 4.13824C90.3854 4.13824 92.4696 4.72652 94.1618 5.90308C95.8539 7.07964 97.0302 8.70248 97.6699 10.7716H95.2967C94.7808 9.33133 93.9141 8.17506 92.6553 7.34335C91.3966 6.51164 89.8282 6.08565 87.9091 6.08565C85.3502 6.08565 83.2454 6.97821 81.5945 8.78362C79.9436 10.5687 79.1182 12.8407 79.1182 15.559C79.1182 18.2772 79.9436 20.5492 81.5945 22.3343C83.2454 24.1195 85.3502 25.0323 87.9091 25.0323C89.8489 25.0323 91.4378 24.6063 92.6966 23.734C93.9348 22.882 94.8221 21.7258 95.338 20.2652H97.7111C97.0508 22.4155 95.8745 24.0586 94.203 25.2149C92.5315 26.3711 90.4267 26.9594 87.9091 26.9594C84.7105 26.9594 82.0691 25.864 80.0055 23.6935C77.942 21.5229 76.9102 18.8047 76.9102 15.5184C76.9102 12.2322 77.942 9.5139 80.0055 7.34335C82.0691 5.1728 84.7105 4.07738 87.9091 4.07738V4.13824Z" fill="#000039"/>
        <path d="M109.865 4.56424L119.048 26.5943H116.675L114.013 20.2044H103.633L101.033 26.5943H98.6602L107.822 4.56424H109.845H109.865ZM108.834 7.42449L108.421 8.58077L104.397 18.2164H113.291L109.246 8.58077L108.834 7.42449Z" fill="#000039"/>
        <path d="M127.963 4.56424C130.089 4.56424 131.802 5.1728 133.081 6.36965C134.361 7.56649 135 9.16905 135 11.1367C135 13.1044 134.361 14.6258 133.102 15.8024C131.822 16.979 130.11 17.5875 127.963 17.5875H123.774V26.5943H121.669V4.56424H127.984H127.963ZM127.963 6.51165H123.774V15.6401H127.963C129.429 15.6401 130.625 15.2344 131.533 14.4027C132.441 13.5913 132.895 12.4959 132.895 11.1367C132.895 9.77761 132.441 8.60105 131.533 7.76935C130.625 6.93764 129.429 6.51165 127.963 6.51165Z" fill="#000039"/>
        <path d="M54.6231 4.54395L62.1552 15.1127L54.3755 26.6349H59.5138L64.8172 18.8452L70.3477 26.5943H75.5273L59.8027 4.54395H54.6231Z" fill="#000039"/>
        <path d="M78.396 0H73.1957L65.1064 11.9887H70.2654L78.396 0Z" fill="#000039"/>
    </g>
    <defs>
        <clipPath id="clip0_1239_1726">
            <rect width="135" height="27" fill="white"/>
        </clipPath>
    </defs>
</svg>