<svg width="65" height="65" viewBox="0 0 65 65" fill="none" xmlns="http://www.w3.org/2000/svg">
    <path fill-rule="evenodd" clip-rule="evenodd" d="M2.82227 62.9606H14.2508V42.9606H2.82227V62.9606Z" stroke="black" stroke-width="2" stroke-linejoin="round"/>
    <path d="M14.25 60.1035H62.8214C62.8214 55.8178 52.8214 51.5321 41.3929 51.5321H21.3929" stroke="black" stroke-width="2" stroke-linecap="round" stroke-linejoin="round"/>
    <path d="M14.25 45.8177H24.25C30.97 45.8177 34.25 50.1035 35.6786 51.532" stroke="black" stroke-width="2" stroke-linejoin="round"/>
    <path fill-rule="evenodd" clip-rule="evenodd" d="M50.9107 21.486C50.9107 24.8939 48.1441 27.6523 44.7444 27.6523C41.3406 27.6523 38.5781 24.8939 38.5781 21.486C38.5781 18.0822 41.3406 15.3197 44.7444 15.3197C48.1441 15.3197 50.9107 18.0822 50.9107 21.486V21.486Z" stroke="black" stroke-width="2" stroke-linejoin="round"/>
    <path fill-rule="evenodd" clip-rule="evenodd" d="M58.6791 18.1864L62.8187 15.7939L58.7078 8.67385L54.5682 11.0664C52.9855 9.57002 51.074 8.39842 48.8541 7.73657V2.98853H40.6324V7.74068C38.4865 8.38198 36.5338 9.51658 34.9018 11.054L30.7827 8.67385L26.6719 15.7939L30.7827 18.1699C30.2483 20.4227 30.2977 22.6672 30.8033 24.7843L26.6719 27.1727L30.7827 34.2927L34.9142 31.9084C36.5009 33.4048 38.4125 34.5805 40.6324 35.2424V39.9863H48.8541V35.2341C51.0041 34.5887 52.9567 33.4541 54.5887 31.9167L58.7078 34.2927L62.8187 27.1727L58.7037 24.7967C59.234 22.5439 59.1847 20.3035 58.6791 18.1864V18.1864Z" stroke="black" stroke-width="2" stroke-linejoin="round"/>
</svg>