<svg width="525" height="436" viewBox="0 0 525 436" fill="none" xmlns="http://www.w3.org/2000/svg">
<path d="M255.638 217.619L318.198 169.505" stroke="#000039" stroke-miterlimit="10"/>
<path d="M255.535 138.804L318.197 1.19391" stroke="#000039" stroke-miterlimit="10"/>
<path d="M524.13 169.505L318.394 217.619" stroke="#000039" stroke-miterlimit="10"/>
<path d="M318.197 169.593L524.13 169.593V1.28168L318.197 1.28168V169.593Z" stroke="#000039" stroke-miterlimit="10"/>
<path d="M255.638 138.491V217.619H318.394" stroke="#000039" stroke-miterlimit="10"/>
<path d="M255.613 217.619H215.632" stroke="#000039" stroke-miterlimit="10"/>
<path d="M255.616 217.619L304.812 266.848" stroke="#000039" stroke-miterlimit="10"/>
<path d="M255.616 255.245L304.812 434.809" stroke="#000039" stroke-miterlimit="10"/>
<path d="M488.559 266.509L318.395 217.619" stroke="#000039" stroke-miterlimit="10"/>
<path d="M304.833 434.722H488.248V266.761H304.833V434.722Z" stroke="#000039" stroke-miterlimit="10"/>
<path d="M255.616 255.245V217.619H318.394" stroke="#000039" stroke-miterlimit="10"/>
<path d="M255.639 217.619L171.637 283.956" stroke="#000039" stroke-miterlimit="10"/>
<path d="M255.639 255.245L171.637 392.42" stroke="#000039" stroke-miterlimit="10"/>
<path d="M0.59668 283.956L215.635 217.619" stroke="#000039" stroke-miterlimit="10"/>
<path d="M171.614 283.869H0.59668V392.333H171.614V283.869Z" stroke="#000039" stroke-miterlimit="10"/>
<path d="M255.638 255.245V217.619H215.635" stroke="#000039" stroke-miterlimit="10"/>
</svg>
