<svg width="339" height="261" viewBox="0 0 339 261" fill="none" xmlns="http://www.w3.org/2000/svg">
    <path d="M299.832 132.536L332.19 132.536" stroke="#000039"/>
    <path d="M19.5117 38.5967H65.3623" stroke="#000039"/>
    <path d="M12.2812 171.597H33.8337" stroke="#000039"/>
    <mask id="mask0_1193_23304" style="mask-type:alpha" maskUnits="userSpaceOnUse" x="34" y="0" width="261" height="261">
        <path fill-rule="evenodd" clip-rule="evenodd" d="M164.822 260.819C236.619 260.819 294.822 202.616 294.822 130.819C294.822 59.0223 236.619 0.819336 164.822 0.819336C93.0252 0.819336 34.8223 59.0223 34.8223 130.819C34.8223 202.616 93.0252 260.819 164.822 260.819ZM164.822 195.754C200.685 195.754 229.757 166.682 229.757 130.819C229.757 94.9571 200.685 65.8849 164.822 65.8849C128.96 65.8849 99.8878 94.9571 99.8878 130.819C99.8878 166.682 128.96 195.754 164.822 195.754Z" fill="#000039"/>
    </mask>
    <g mask="url(#mask0_1193_23304)">
        <rect x="9.16211" y="-27.3018" width="311.319" height="310.242" fill="#007AC2"/>
        <path d="M164.822 130.568L53.2796 280.9C11.1841 238.804 0.0810566 48.9635 11.1841 34.1726L164.822 130.568Z" fill="#00BFF3" stroke="white" stroke-width="2"/>
        <path d="M164.822 130.568L25.2147 61.0669C40.8864 40.19 77.3306 0.138373 101.125 -10.5981L164.822 130.568Z" fill="#00BFF3" stroke="white" stroke-width="2"/>
    </g>
    <path d="M123.292 131.511V129.542H124.921C124.905 129.386 124.897 129.003 124.897 128.394C124.897 127.776 124.905 127.378 124.921 127.198H123.292V125.229H125.214C125.612 123.479 126.335 122.124 127.382 121.163C128.429 120.194 129.714 119.71 131.237 119.71C134.479 119.71 136.397 121.39 136.991 124.749H134.085C133.874 123.069 132.925 122.229 131.237 122.229C129.651 122.229 128.569 123.229 127.991 125.229H131.308V127.198H127.687C127.647 127.651 127.628 128.05 127.628 128.394C127.628 129.003 127.636 129.386 127.651 129.542H131.308V131.511H127.991C128.546 133.581 129.628 134.616 131.237 134.616C132.034 134.616 132.675 134.397 133.159 133.96C133.644 133.515 133.952 132.882 134.085 132.062H136.991C136.616 133.765 135.964 135.038 135.034 135.882C134.112 136.718 132.847 137.136 131.237 137.136C129.698 137.136 128.405 136.644 127.358 135.659C126.319 134.675 125.604 133.292 125.214 131.511H123.292ZM138.034 124.503V122.229C139.362 122.229 140.347 122.065 140.987 121.737C141.636 121.401 142.062 120.827 142.265 120.015H144.28V136.819H141.585V124.503H138.034ZM146.999 131.851H149.683C149.69 132.757 149.944 133.444 150.444 133.913C150.952 134.382 151.644 134.616 152.519 134.616C153.3 134.616 153.925 134.382 154.394 133.913C154.87 133.444 155.108 132.819 155.108 132.038C155.108 131.147 154.808 130.472 154.206 130.011C153.612 129.542 152.761 129.308 151.651 129.308H150.913V126.952H151.628C152.636 126.952 153.374 126.765 153.843 126.39C154.319 126.015 154.558 125.421 154.558 124.608C154.558 123.866 154.366 123.284 153.983 122.862C153.601 122.44 153.058 122.229 152.354 122.229C151.659 122.229 151.097 122.46 150.667 122.921C150.237 123.382 150.022 124.038 150.022 124.89H147.339C147.339 123.296 147.788 122.034 148.687 121.104C149.593 120.175 150.808 119.71 152.331 119.71C153.854 119.71 155.062 120.167 155.952 121.081C156.835 121.964 157.276 123.104 157.276 124.503C157.276 125.409 157.065 126.175 156.644 126.8C156.222 127.417 155.687 127.847 155.038 128.089C155.866 128.331 156.542 128.804 157.065 129.507C157.589 130.21 157.851 131.089 157.851 132.144C157.851 133.636 157.354 134.843 156.362 135.765C155.378 136.679 154.073 137.136 152.448 137.136C150.753 137.136 149.421 136.671 148.452 135.741C147.483 134.812 146.999 133.515 146.999 131.851ZM159.62 124.503V122.229C160.948 122.229 161.933 122.065 162.573 121.737C163.222 121.401 163.647 120.827 163.851 120.015H165.866V136.819H163.171V124.503H159.62ZM168.925 136.608C168.604 136.288 168.444 135.886 168.444 135.401C168.444 134.917 168.604 134.526 168.925 134.229C169.245 133.909 169.644 133.749 170.12 133.749C170.597 133.749 170.995 133.909 171.315 134.229C171.651 134.526 171.819 134.917 171.819 135.401C171.819 135.886 171.651 136.288 171.315 136.608C170.995 136.929 170.597 137.089 170.12 137.089C169.644 137.089 169.245 136.929 168.925 136.608ZM173.964 132.097H176.671C176.679 132.933 176.913 133.562 177.374 133.983C177.843 134.405 178.487 134.616 179.308 134.616C180.144 134.616 180.796 134.339 181.265 133.784C181.741 133.222 181.979 132.472 181.979 131.534C181.979 130.612 181.737 129.894 181.253 129.378C180.769 128.854 180.097 128.593 179.237 128.593C178.331 128.593 177.53 128.823 176.835 129.284H174.444V120.015H183.819V122.534H177.175V126.718C177.823 126.351 178.663 126.167 179.694 126.167C181.21 126.167 182.421 126.628 183.327 127.55C184.233 128.472 184.687 129.761 184.687 131.417C184.687 133.144 184.198 134.53 183.222 135.577C182.253 136.616 180.94 137.136 179.284 137.136C177.62 137.136 176.315 136.698 175.37 135.823C174.433 134.94 173.964 133.698 173.964 132.097ZM187.358 136.819V120.015H190.382L195.702 131.663L196.112 132.694L196.569 131.663L201.901 120.015H204.948V136.819H202.253V125.159L201.772 126.519L197.237 136.819H195.011L190.499 126.519L190.042 125.159V136.819H187.358Z" fill="#000039"/>
    <rect y="25.7275" width="24.5625" height="24.5625" rx="12.2812" fill="#000039"/>
    <path d="M10.1553 35.8242V34.498C10.93 34.498 11.5042 34.4023 11.8779 34.2109C12.2562 34.015 12.5046 33.68 12.623 33.2061H13.7988V43.0088H12.2266V35.8242H10.1553Z" fill="white"/>
    <rect y="159.315" width="24.5625" height="24.5625" rx="12.2812" fill="#000039"/>
    <path d="M9.4375 169.692C9.42383 168.754 9.68587 168.008 10.2236 167.457C10.7568 166.896 11.4701 166.616 12.3633 166.616C13.2565 166.616 13.9492 166.865 14.4414 167.361C14.9336 167.854 15.1797 168.528 15.1797 169.385C15.1797 169.9 15.0817 170.378 14.8857 170.82C14.6898 171.262 14.3867 171.736 13.9766 172.242L11.6797 175.127H15.2754V176.597H9.50586V175.448L12.5889 171.654C12.9626 171.199 13.2223 170.816 13.3682 170.506C13.5186 170.191 13.5938 169.843 13.5938 169.46C13.5938 168.544 13.1745 168.086 12.3359 168.086C11.9121 168.086 11.5817 168.223 11.3447 168.496C11.1123 168.765 10.9984 169.164 11.0029 169.692H9.4375Z" fill="white"/>
    <rect x="313.531" y="120.255" width="24.5625" height="24.5625" rx="12.2812" fill="#000039"/>
    <path d="M322.62 134.638H324.186C324.19 135.166 324.338 135.567 324.63 135.841C324.926 136.114 325.329 136.251 325.84 136.251C326.296 136.251 326.66 136.114 326.934 135.841C327.212 135.567 327.351 135.203 327.351 134.747C327.351 134.228 327.175 133.833 326.824 133.564C326.478 133.291 325.981 133.154 325.334 133.154H324.903V131.78H325.32C325.908 131.78 326.339 131.671 326.612 131.452C326.89 131.233 327.029 130.887 327.029 130.413C327.029 129.98 326.918 129.641 326.694 129.395C326.471 129.148 326.154 129.025 325.744 129.025C325.339 129.025 325.01 129.16 324.76 129.429C324.509 129.698 324.384 130.08 324.384 130.577H322.818C322.818 129.647 323.08 128.911 323.604 128.369C324.133 127.827 324.842 127.556 325.73 127.556C326.619 127.556 327.323 127.822 327.843 128.355C328.358 128.87 328.615 129.536 328.615 130.352C328.615 130.88 328.492 131.327 328.246 131.691C328 132.051 327.688 132.302 327.31 132.443C327.793 132.585 328.187 132.86 328.492 133.271C328.798 133.681 328.95 134.193 328.95 134.809C328.95 135.679 328.661 136.383 328.082 136.921C327.508 137.454 326.747 137.721 325.799 137.721C324.81 137.721 324.033 137.45 323.468 136.907C322.903 136.365 322.62 135.608 322.62 134.638Z" fill="white"/>
</svg>